<svg width="31" height="29" viewBox="0 0 31 29" fill="none" xmlns="http://www.w3.org/2000/svg">
<path d="M26.4792 3.02081H4.52087L6.45837 23.5625L15.5 25.9791L24.5417 23.5625L26.4792 3.02081Z" fill="#E65100"/>
<path d="M15.5 4.83331V24.1062L22.7333 22.1729L24.3479 4.83331H15.5Z" fill="#FF6D00"/>
<path d="M15.5 15.1042V12.6875H21.0542L20.6021 19.6354L15.5 21.2063V18.6688L18.1479 17.8229L18.3417 15.1042H15.5ZM21.2479 10.2709L21.4417 7.85419H15.5V10.2709H21.2479Z" fill="white"/>
<path d="M15.5 18.6688V21.2063L10.3979 19.6354L10.1396 16.3125H12.7229L12.8521 17.8229L15.5 18.6688ZM12.3354 10.2709H15.5V7.85419H9.62292L10.075 15.1042H15.5V12.6875H12.5292L12.3354 10.2709Z" fill="#EEEEEE"/>
</svg>
