<svg width="84" height="33" viewBox="0 0 84 33" fill="none" xmlns="http://www.w3.org/2000/svg">
<g clip-path="url(#clip0_2_569)">
<path d="M38.5881 28.8068H40.737V20.4573H38.5881V28.8068ZM38.5881 19.1552H40.737V17.1696H38.5881V19.1552Z" fill="#727272"/>
<path d="M42.1217 31.5411H44.2706V27.8628H44.3023C44.7605 28.5789 45.5031 29.0509 46.6407 29.0509C48.7265 29.0509 50.1485 27.342 50.1485 24.6402C50.1485 22.036 48.7739 20.2294 46.6249 20.2294C45.5189 20.2294 44.7605 20.7665 44.239 21.4989H44.1916V20.4573H42.1217V31.5411ZM46.1826 27.2117C44.9027 27.2117 44.2232 26.219 44.2232 24.7053C44.2232 23.2079 44.7605 22.0197 46.1035 22.0197C47.4308 22.0197 47.968 23.1265 47.968 24.7053C47.968 26.284 47.2728 27.2117 46.1826 27.2117Z" fill="#727272"/>
<path d="M54.4354 29.0509C56.4579 29.0509 57.8484 28.0418 57.8484 26.3654C57.8484 24.4123 56.3473 24.0217 54.9885 23.7287C53.835 23.4846 52.7605 23.4194 52.7605 22.7033C52.7605 22.1011 53.3135 21.7755 54.151 21.7755C55.0675 21.7755 55.6205 22.1011 55.7153 22.9963H57.6588C57.5008 21.3199 56.3157 20.2294 54.1826 20.2294C52.3339 20.2294 50.8802 21.092 50.8802 22.8986C50.8802 24.7215 52.3023 25.1284 53.756 25.4214C54.862 25.6492 55.8891 25.7306 55.8891 26.5282C55.8891 27.1141 55.3519 27.4884 54.4038 27.4884C53.44 27.4884 52.7763 27.0653 52.6341 26.1049H50.6432C50.7696 27.8791 52.0811 29.0509 54.4354 29.0509Z" fill="#727272"/>
<path d="M66.0071 28.8068V20.4573H63.8582V25.2749C63.8582 26.3817 63.242 27.1629 62.2307 27.1629C61.3143 27.1629 60.8876 26.6258 60.8876 25.6492V20.4573H58.7545V26.0236C58.7545 27.8465 59.7658 29.0347 61.5671 29.0347C62.7047 29.0347 63.3367 28.5952 63.8898 27.8302H63.9372V28.8068H66.0071Z" fill="#727272"/>
<path d="M67.3964 28.8068H69.5453V23.9565C69.5453 22.8498 70.13 22.1337 70.999 22.1337C71.789 22.1337 72.2473 22.6219 72.2473 23.5659V28.8068H74.3962V23.9565C74.3962 22.8498 74.9492 22.1337 75.8498 22.1337C76.6399 22.1337 77.0981 22.6219 77.0981 23.5659V28.8068H79.247V23.1916C79.247 21.3687 78.2832 20.2294 76.5767 20.2294C75.5496 20.2294 74.6964 20.7828 74.1434 21.6942H74.1118C73.7167 20.8153 72.8951 20.2294 71.868 20.2294C70.7462 20.2294 69.9561 20.8153 69.5137 21.5803H69.4663V20.4573H67.3964V28.8068Z" fill="#727272"/>
<path d="M38.6198 14.506H40.7687V2.86875H38.6198V14.506Z" fill="#727272"/>
<path d="M46.023 14.7501C48.5353 14.7501 50.2576 12.8296 50.2576 10.3394C50.2576 7.84916 48.5353 5.92862 46.023 5.92862C43.5107 5.92862 41.7883 7.84916 41.7883 10.3394C41.7883 12.8296 43.5107 14.7501 46.023 14.7501ZM46.023 13.0574C44.6957 13.0574 43.9689 11.967 43.9689 10.3394C43.9689 8.71177 44.6957 7.60503 46.023 7.60503C47.3344 7.60503 48.0771 8.71177 48.0771 10.3394C48.0771 11.967 47.3344 13.0574 46.023 13.0574Z" fill="#727272"/>
<path d="M54.8275 17.3543C56.0284 17.3543 57.0712 17.0613 57.7506 16.4103C58.351 15.8406 58.7145 15.0431 58.7145 13.8712V6.15648H56.6446V7.03537H56.613C56.1231 6.33551 55.3805 5.92862 54.3692 5.92862C52.3152 5.92862 50.8615 7.52365 50.8615 10.0139C50.8615 12.5366 52.6312 14.0014 54.4325 14.0014C55.4596 14.0014 56.0758 13.5783 56.5498 13.0249H56.5972V13.9363C56.5972 15.0756 56.0126 15.6778 54.7959 15.6778C53.8004 15.6778 53.3422 15.271 53.1684 14.7501H51.0353C51.2565 16.3777 52.6154 17.3543 54.8275 17.3543ZM54.7959 12.2274C53.6898 12.2274 52.963 11.3973 52.963 9.98132C52.963 8.5816 53.6898 7.70268 54.7801 7.70268C56.0758 7.70268 56.7078 8.74431 56.7078 9.96505C56.7078 11.202 56.1547 12.2274 54.7959 12.2274Z" fill="#727272"/>
<path d="M63.9379 14.7501C66.4502 14.7501 68.1725 12.8296 68.1725 10.3394C68.1725 7.84916 66.4502 5.92862 63.9379 5.92862C61.4256 5.92862 59.7032 7.84916 59.7032 10.3394C59.7032 12.8296 61.4256 14.7501 63.9379 14.7501ZM63.9379 13.0574C62.6106 13.0574 61.8838 11.967 61.8838 10.3394C61.8838 8.71177 62.6106 7.60503 63.9379 7.60503C65.2494 7.60503 65.992 8.71177 65.992 10.3394C65.992 11.967 65.2494 13.0574 63.9379 13.0574Z" fill="#727272"/>
<path d="M70.0566 11.316H79.3474V9.41168H70.0566V11.316Z" fill="#727272"/>
<path d="M80.0283 19.039C80.0283 18.6644 80.323 18.3608 80.6869 18.3608H82.0032C82.3671 18.3608 82.6618 18.6644 82.6618 19.039C82.6618 19.4134 82.3671 19.7171 82.0032 19.7171H80.6869C80.323 19.7171 80.0283 19.4134 80.0283 19.039Z" fill="#727272"/>
<path fill-rule="evenodd" clip-rule="evenodd" d="M16.8865 0.281343C25.5671 0.281343 32.6041 7.5299 32.6041 16.4715C32.6041 25.413 25.5671 32.6616 16.8865 32.6616C8.20595 32.6616 1.16895 25.413 1.16895 16.4715C1.16895 7.5299 8.20595 0.281343 16.8865 0.281343ZM16.3184 1.49284C14.5254 1.75277 12.818 3.23691 11.4926 5.71912C11.1081 6.43912 10.7612 7.23456 10.4589 8.09343C12.2611 7.62694 14.2408 7.35191 16.3184 7.30937V1.49284ZM9.13053 8.48228C9.50642 7.26704 9.96631 6.14896 10.497 5.15509C11.154 3.9246 11.9338 2.86201 12.8123 2.04588C8.03501 3.47503 4.26942 7.35383 2.88199 12.2747C3.67429 11.3698 4.70587 10.5666 5.90046 9.88985C6.86532 9.34319 7.95075 8.86947 9.13053 8.48228ZM8.75299 9.85059C8.30015 11.707 8.03315 13.7462 7.99185 15.8863H2.34508C2.59743 14.0392 4.03826 12.2805 6.44802 10.9153C7.147 10.5193 7.91923 10.162 8.75299 9.85059ZM9.12833 15.8863C9.17525 13.5508 9.50162 11.3581 10.0417 9.42083C11.9224 8.86453 14.0512 8.52826 16.3184 8.47994V11.0079C15.4726 13.2385 13.7474 15.0153 11.5819 15.8863H9.12833ZM7.99185 17.0567H2.34508C2.59743 18.9037 4.03826 20.6624 6.44802 22.0276C7.147 22.4236 7.91923 22.7809 8.75299 23.0923C8.30015 21.236 8.03315 19.1967 7.99185 17.0567ZM10.0417 23.5221C9.50162 21.5848 9.17525 19.3922 9.12833 17.0567H11.5819C13.7474 17.9276 15.4727 19.7045 16.3184 21.935V24.463C14.0512 24.4147 11.9224 24.0784 10.0417 23.5221ZM9.13053 24.4606C7.95075 24.0734 6.86532 23.5997 5.90046 23.0531C4.70587 22.3763 3.67429 21.5731 2.88199 20.6682C4.26942 25.5891 8.03501 29.4679 12.8123 30.897C11.9338 30.0809 11.154 29.0183 10.497 27.7878C9.96631 26.794 9.50642 25.6759 9.13053 24.4606ZM16.3184 31.4501C14.5254 31.1901 12.818 29.706 11.4926 27.2238C11.1081 26.5038 10.7612 25.7083 10.4589 24.8495C12.2611 25.316 14.2408 25.591 16.3184 25.6335V31.4501ZM20.9608 30.897C21.8393 30.0809 22.6191 29.0183 23.2761 27.7878C23.8068 26.794 24.2667 25.6759 24.6425 24.4606C25.8223 24.0734 26.9078 23.5997 27.8727 23.0531C29.0672 22.3763 30.0988 21.5731 30.8911 20.6682C29.5037 25.5891 25.7381 29.4679 20.9608 30.897ZM23.3142 24.8495C23.0118 25.7083 22.665 26.5038 22.2805 27.2238C20.9552 29.706 19.2478 31.1901 17.4546 31.4501V25.6335C19.5323 25.591 21.512 25.316 23.3142 24.8495ZM25.0201 23.0923C25.8538 22.7809 26.6261 22.4236 27.3251 22.0276C29.7348 20.6624 31.1756 18.9037 31.428 17.0567H25.7812C25.7399 19.1967 25.4729 21.236 25.0201 23.0923ZM24.6448 17.0567C24.5979 19.3922 24.2714 21.5848 23.7314 23.5221C21.8506 24.0784 19.722 24.4147 17.4546 24.463V21.9368C18.3002 19.7055 20.0257 17.9278 22.1919 17.0567H24.6448ZM25.7812 15.8863H31.428C31.1756 14.0392 29.7348 12.2805 27.3251 10.9153C26.6261 10.5193 25.8538 10.162 25.0201 9.85059C25.4729 11.707 25.7399 13.7462 25.7812 15.8863ZM23.7314 9.42083C24.2714 11.3581 24.5979 13.5508 24.6448 15.8863H22.1919C20.0257 15.0151 18.3002 13.2374 17.4546 11.0061V8.47994C19.722 8.52826 21.8506 8.86453 23.7314 9.42083ZM24.6425 8.48228C25.8223 8.86947 26.9078 9.34319 27.8727 9.88985C29.0672 10.5666 30.0988 11.3698 30.8911 12.2747C29.5037 7.35383 25.7381 3.47503 20.9608 2.04588C21.8393 2.86201 22.6191 3.9246 23.2761 5.15509C23.8068 6.14896 24.2667 7.26704 24.6425 8.48228ZM17.4546 1.49284C19.2478 1.75277 20.9552 3.23691 22.2805 5.71912C22.665 6.43912 23.0118 7.23456 23.3142 8.09343C21.512 7.62694 19.5323 7.35191 17.4546 7.30937V1.49284Z" fill="#727272"/>
</g>
<defs>
<clipPath id="clip0_2_569">
<rect width="82.5174" height="32.3802" fill="white" transform="translate(0.759033 0.281334)"/>
</clipPath>
</defs>
</svg>
