<svg width="101" height="33" viewBox="0 0 101 33" fill="none" xmlns="http://www.w3.org/2000/svg">
<g clip-path="url(#clip0_2_553)">
<path d="M71.3737 29.9992C71.9806 29.9992 72.3396 29.5476 72.3396 28.8416C72.3396 28.1096 71.9542 27.684 71.3864 27.684C71.0618 27.684 70.8363 27.8253 70.6676 28.05H70.6596V26.8931H70.3077V29.9348H70.6596V29.6458H70.6676C70.8499 29.8924 71.0706 29.9992 71.3737 29.9992ZM71.3481 29.7094C70.8715 29.7094 70.6372 29.3395 70.6372 28.8455C70.6372 28.3696 70.8627 27.9777 71.3521 27.9777C71.7767 27.9777 71.9806 28.3523 71.9806 28.8455C71.9806 29.3434 71.7767 29.7094 71.3481 29.7094ZM72.9337 30.6628C73.2064 30.6628 73.3799 30.5686 73.5615 30.1131L74.5194 27.735H74.1468L73.635 29.1055C73.5663 29.2885 73.4879 29.5351 73.4879 29.5351H73.4799C73.4799 29.5351 73.3967 29.2885 73.328 29.1055L72.7994 27.735H72.418L73.2928 29.8712L73.2064 30.088C73.1201 30.3008 73.0201 30.3566 72.873 30.3566C72.7908 30.3606 72.7089 30.3444 72.6347 30.3094H72.6171V30.6157C72.713 30.6542 72.7994 30.6628 72.9337 30.6628ZM75.4174 29.9348H76.0068V26.8931H75.4174V29.9348ZM77.4477 29.9992C78.1362 29.9992 78.6088 29.4966 78.6088 28.8455C78.6088 28.1945 78.137 27.6926 77.4477 27.6926C76.7592 27.6926 76.2866 28.1953 76.2866 28.8455C76.2866 29.4974 76.7584 29.9992 77.4477 29.9992ZM77.4477 29.5563C77.0839 29.5563 76.8848 29.2712 76.8848 28.8455C76.8848 28.4206 77.0839 28.1309 77.4477 28.1309C77.8075 28.1309 78.0106 28.4206 78.0106 28.8455C78.0106 29.2712 77.8075 29.5563 77.4477 29.5563ZM79.8618 30.6793C80.1913 30.6793 80.4767 30.6032 80.663 30.4327C80.8278 30.2835 80.9277 30.0754 80.9277 29.7691V27.7523H80.36V27.9824H80.3512C80.2168 27.7994 80.0137 27.6926 79.7355 27.6926C79.1733 27.6926 78.7743 28.1096 78.7743 28.7607C78.7743 29.4204 79.2597 29.8029 79.7539 29.8029C80.0353 29.8029 80.204 29.6929 80.3336 29.5476H80.3472V29.7864C80.3472 30.084 80.1873 30.2419 79.853 30.2419C79.5803 30.2419 79.4548 30.1351 79.4068 29.9984H78.8223C78.8822 30.4241 79.2549 30.6793 79.8618 30.6793ZM79.8538 29.3395C79.5499 29.3395 79.35 29.1228 79.35 28.7521C79.35 28.3861 79.5499 28.1568 79.849 28.1568C80.204 28.1568 80.3776 28.4285 80.3776 28.7481C80.3776 29.0717 80.2256 29.3395 79.853 29.3395H79.8538ZM82.3599 29.9992C83.0484 29.9992 83.5209 29.4966 83.5209 28.8455C83.5209 28.1945 83.0484 27.6926 82.3599 27.6926C81.6706 27.6926 81.1988 28.1953 81.1988 28.8455C81.1988 29.4974 81.6706 29.9992 82.3599 29.9992ZM82.3599 29.5563C81.996 29.5563 81.7961 29.2712 81.7961 28.8455C81.7961 28.4206 81.996 28.1309 82.3599 28.1309C82.7189 28.1309 82.9228 28.4206 82.9228 28.8455C82.9228 29.2712 82.7189 29.5563 82.3599 29.5563ZM83.7944 29.9348H84.3837V27.7523H83.7944V29.9348ZM83.7944 27.4122H84.3837V26.8931H83.7944V27.4122ZM84.7636 30.6495H85.3529V29.689H85.3609C85.4872 29.8767 85.6904 30 86.0022 30C86.574 30 86.9642 29.5523 86.9642 28.8463C86.9642 28.1654 86.5876 27.6934 85.9982 27.6934C85.8697 27.6914 85.7427 27.7206 85.6286 27.7786C85.5144 27.8366 85.4167 27.9214 85.3441 28.0256H85.3313V27.7531H84.7636V30.6511V30.6495ZM85.8767 29.5186C85.5256 29.5186 85.3393 29.2586 85.3393 28.8628C85.3393 28.4717 85.4872 28.1607 85.8551 28.1607C86.2189 28.1607 86.3661 28.4497 86.3661 28.8628C86.3661 29.2759 86.1757 29.5186 85.8767 29.5186ZM88.1396 29.9992C88.6938 29.9992 89.0752 29.7353 89.0752 29.2971C89.0752 28.7866 88.6634 28.6845 88.2908 28.6076C87.9749 28.5439 87.6807 28.5267 87.6807 28.3398C87.6807 28.1827 87.8318 28.0963 88.0613 28.0963C88.3132 28.0963 88.4643 28.1827 88.4907 28.4159H89.0232C88.9801 27.9777 88.6554 27.6934 88.0701 27.6934C87.5631 27.6934 87.1649 27.918 87.1649 28.3908C87.1649 28.8667 87.5543 28.9735 87.9533 29.0505C88.2564 29.1094 88.5379 29.1306 88.5379 29.3395C88.5379 29.4927 88.3907 29.5908 88.1308 29.5908C87.867 29.5908 87.6847 29.4801 87.6455 29.2288H87.1001C87.1345 29.6921 87.4943 29.9992 88.1396 29.9992ZM91.3126 29.9348V27.7523H90.7233V29.012C90.7233 29.301 90.5537 29.5052 90.2771 29.5052C90.026 29.5052 89.9084 29.3646 89.9084 29.1094V27.7523H89.3239V29.2076C89.3239 29.6843 89.6014 29.9945 90.0948 29.9945C90.4066 29.9945 90.5801 29.8798 90.7321 29.6804H90.7449V29.9348H91.3126ZM91.6932 29.9348H92.2826V28.668C92.2826 28.3782 92.4425 28.1913 92.6808 28.1913C92.8975 28.1913 93.023 28.3193 93.023 28.5659V29.9356H93.6124V28.668C93.6124 28.3782 93.7643 28.1913 94.0114 28.1913C94.2281 28.1913 94.3536 28.3193 94.3536 28.5659V29.9356H94.943V28.4678C94.943 27.9911 94.6783 27.6934 94.2105 27.6934C93.929 27.6934 93.6947 27.8379 93.5436 28.0767H93.5348C93.4814 27.9607 93.3947 27.8627 93.2853 27.7946C93.1759 27.7265 93.0486 27.6913 92.9191 27.6934C92.7892 27.6902 92.6607 27.7213 92.5472 27.7835C92.4337 27.8456 92.3393 27.9366 92.2738 28.0468H92.261V27.7531H91.6932V29.9364V29.9348Z" fill="#727272"/>
<path d="M95.059 2.45209C95.059 1.52302 95.8258 0.769072 96.7718 0.769072H97.9145C98.369 0.769072 98.8048 0.94639 99.1262 1.26202C99.4475 1.57765 99.6281 2.00573 99.6281 2.45209C99.6281 2.89846 99.4475 3.32654 99.1262 3.64217C98.8048 3.9578 98.369 4.13512 97.9145 4.13512H96.7718C96.5468 4.13512 96.324 4.09158 96.1161 4.00699C95.9083 3.9224 95.7194 3.79842 95.5604 3.64212C95.4013 3.48583 95.2751 3.30029 95.1891 3.0961C95.1031 2.89191 95.0589 2.67307 95.059 2.45209ZM47.088 11.9871C47.088 18.182 41.9751 23.2044 35.6667 23.2044C29.3592 23.2044 24.2455 18.182 24.2455 11.9871C24.2455 5.79065 29.3592 0.769857 35.6667 0.769857C41.9751 0.769857 47.088 5.79065 47.088 11.9871ZM22.0177 11.9314C22.6494 11.9314 23.166 12.434 23.1028 13.0513C22.887 15.1638 22.0651 17.1727 20.7328 18.8446C19.4005 20.5165 17.6124 21.7827 15.5764 22.4961C13.5404 23.2095 11.3401 23.3407 9.23114 22.8746C7.1222 22.4085 5.19125 21.3641 3.6627 19.8628C2.13416 18.3616 1.07079 16.4651 0.596182 14.3938C0.121574 12.3226 0.255214 10.1615 0.981572 8.16188C1.70793 6.16224 2.99718 4.40611 4.69948 3.09759C6.40178 1.78906 8.44724 0.981884 10.5981 0.769857C11.2258 0.707029 11.7384 1.21594 11.7384 1.8348V10.8091C11.7384 11.4295 12.2502 11.9314 12.8811 11.9314H22.0177ZM63.0783 25.4482C63.987 25.4482 64.8586 25.8027 65.5012 26.4338C66.1437 27.0649 66.5047 27.9209 66.5047 28.8134C66.5047 29.7059 66.1437 30.5619 65.5012 31.193C64.8586 31.8241 63.987 32.1787 63.0783 32.1787H57.3681C56.4593 32.1787 55.5878 31.8241 54.9452 31.193C54.3026 30.5619 53.9416 29.7059 53.9416 28.8134C53.9416 27.9209 54.3026 27.0649 54.9452 26.4338C55.5878 25.8027 56.4593 25.4482 57.3681 25.4482H63.0783ZM59.6518 23.2044C65.9602 23.2044 71.0739 18.182 71.0739 11.9871C71.0766 10.0842 70.5842 8.21207 69.6433 6.54852L71.5304 4.69508C71.7478 4.48148 71.9202 4.22793 72.0378 3.9489C72.1554 3.66987 72.2159 3.37082 72.2158 3.06883C72.2158 2.76684 72.1551 2.46782 72.0374 2.18884C71.9197 1.90987 71.7471 1.6564 71.5296 1.44291C71.3122 1.22942 71.054 1.06009 70.7699 0.944592C70.4858 0.829092 70.1813 0.769683 69.8738 0.769756C69.5664 0.769829 69.2619 0.829383 68.9779 0.945017C68.6938 1.06065 68.4357 1.2301 68.2184 1.44369L66.5711 3.06153C64.5838 1.57085 62.1516 0.76512 59.651 0.769072C53.3443 0.769857 48.2314 5.79065 48.2314 11.9871C48.2314 18.182 53.3443 23.2044 59.6518 23.2044ZM95.059 11.9871C95.059 18.182 89.9453 23.2044 83.637 23.2044C77.3294 23.2044 72.2157 18.182 72.2157 11.9871C72.2157 5.79065 77.3294 0.769857 83.637 0.769857C89.9453 0.769857 95.059 5.79143 95.059 11.9871Z" fill="#727272"/>
</g>
<defs>
<clipPath id="clip0_2_553">
<rect width="99.9546" height="31.4143" fill="white" transform="translate(0.317505 0.764295)"/>
</clipPath>
</defs>
</svg>
