<svg width="123" height="26" viewBox="0 0 123 26" fill="none" xmlns="http://www.w3.org/2000/svg">
<g clip-path="url(#clip0_2_582)">
<path d="M37.334 19.9251V7.16528H39.6799V17.7378H45.3672V19.9251H37.334Z" fill="#727272"/>
<path d="M50.4323 20.1804C49.5555 20.1804 48.7676 19.9981 48.0685 19.6335C47.3694 19.269 46.8185 18.7403 46.4156 18.0477C46.0128 17.355 45.8114 16.5226 45.8114 15.5504V15.2587C45.8114 14.2865 46.0128 13.4541 46.4156 12.7614C46.8185 12.0687 47.3694 11.5401 48.0685 11.1755C48.7676 10.811 49.5555 10.6287 50.4323 10.6287C51.3091 10.6287 52.097 10.811 52.796 11.1755C53.4951 11.5401 54.046 12.0687 54.4489 12.7614C54.8518 13.4541 55.0532 14.2865 55.0532 15.2587V15.5504C55.0532 16.5226 54.8518 17.355 54.4489 18.0477C54.046 18.7403 53.4951 19.269 52.796 19.6335C52.097 19.9981 51.3091 20.1804 50.4323 20.1804ZM50.4323 18.1388C51.1195 18.1388 51.6882 17.9139 52.1385 17.4644C52.5887 17.0025 52.8138 16.3463 52.8138 15.4957V15.3134C52.8138 14.4627 52.5887 13.8126 52.1385 13.3629C51.7001 12.9012 51.1313 12.6702 50.4323 12.6702C49.7451 12.6702 49.1764 12.9012 48.7261 13.3629C48.2758 13.8126 48.0507 14.4627 48.0507 15.3134V15.4957C48.0507 16.3463 48.2758 17.0025 48.7261 17.4644C49.1764 17.9139 49.7451 18.1388 50.4323 18.1388Z" fill="#727272"/>
<path d="M55.8939 15.441V15.1494C55.8939 14.2014 56.0775 13.3933 56.4449 12.7249C56.8122 12.0445 57.2979 11.528 57.9022 11.1755C58.5184 10.811 59.1878 10.6287 59.9106 10.6287C60.7162 10.6287 61.3264 10.7745 61.7411 11.0662C62.1558 11.3578 62.4579 11.6616 62.6475 11.9776H62.9675V10.8839H65.1713V21.5292C65.1713 22.149 64.9935 22.6412 64.6381 23.0058C64.2826 23.3825 63.8087 23.5708 63.2162 23.5708H57.3157V21.5657H62.4343C62.7661 21.5657 62.9319 21.3834 62.9319 21.0188V18.6674H62.612C62.4935 18.8619 62.3276 19.0623 62.1144 19.269C61.9011 19.4633 61.6168 19.6275 61.2613 19.7611C60.9058 19.8948 60.4556 19.9617 59.9106 19.9617C59.1878 19.9617 58.5184 19.7854 57.9022 19.433C57.2979 19.0684 56.8122 18.5519 56.4449 17.8835C56.0775 17.2031 55.8939 16.3888 55.8939 15.441ZM60.5504 17.9565C61.2376 17.9565 61.8122 17.7316 62.2743 17.2821C62.7364 16.8324 62.9675 16.2005 62.9675 15.3863V15.204C62.9675 14.3776 62.7364 13.7457 62.2743 13.3082C61.824 12.8586 61.2494 12.6338 60.5504 12.6338C59.8631 12.6338 59.2885 12.8586 58.8264 13.3082C58.3643 13.7457 58.1333 14.3776 58.1333 15.204V15.3863C58.1333 16.2005 58.3643 16.8324 58.8264 17.2821C59.2885 17.7316 59.8631 17.9565 60.5504 17.9565Z" fill="#727272"/>
<path d="M71.0487 20.1804C70.1719 20.1804 69.384 19.9981 68.6849 19.6335C67.9858 19.269 67.4349 18.7403 67.0321 18.0477C66.6292 17.355 66.4277 16.5226 66.4277 15.5504V15.2587C66.4277 14.2865 66.6292 13.4541 67.0321 12.7614C67.4349 12.0687 67.9858 11.5401 68.6849 11.1755C69.384 10.811 70.1719 10.6287 71.0487 10.6287C71.9255 10.6287 72.7133 10.811 73.4125 11.1755C74.1115 11.5401 74.6624 12.0687 75.0653 12.7614C75.4682 13.4541 75.6696 14.2865 75.6696 15.2587V15.5504C75.6696 16.5226 75.4682 17.355 75.0653 18.0477C74.6624 18.7403 74.1115 19.269 73.4125 19.6335C72.7133 19.9981 71.9255 20.1804 71.0487 20.1804ZM71.0487 18.1388C71.7359 18.1388 72.3046 17.9139 72.7548 17.4644C73.2051 17.0025 73.4302 16.3463 73.4302 15.4957V15.3134C73.4302 14.4627 73.2051 13.8126 72.7548 13.3629C72.3165 12.9012 71.7477 12.6702 71.0487 12.6702C70.3614 12.6702 69.7928 12.9012 69.3425 13.3629C68.8922 13.8126 68.6671 14.4627 68.6671 15.3134V15.4957C68.6671 16.3463 68.8922 17.0025 69.3425 17.4644C69.7928 17.9139 70.3614 18.1388 71.0487 18.1388Z" fill="#727272"/>
<path d="M76.9367 19.9251V10.8838H79.1763V19.9251H76.9367ZM78.0565 9.82665C77.6532 9.82665 77.3103 9.69293 77.0254 9.42556C76.7531 9.15826 76.6168 8.80582 76.6168 8.36835C76.6168 7.93087 76.7531 7.57845 77.0254 7.3111C77.3103 7.04375 77.6532 6.91008 78.0565 6.91008C78.4713 6.91008 78.815 7.04375 79.0869 7.3111C79.3596 7.57845 79.4963 7.93087 79.4963 8.36835C79.4963 8.80582 79.3596 9.15826 79.0869 9.42556C78.815 9.69293 78.4713 9.82665 78.0565 9.82665Z" fill="#727272"/>
<path d="M80.8583 23.5708V10.8839H83.0619V11.9776H83.3819C83.5828 11.6252 83.8967 11.3153 84.3237 11.0479C84.7499 10.7685 85.3602 10.6287 86.1545 10.6287C86.8649 10.6287 87.5225 10.811 88.1267 11.1755C88.7316 11.528 89.2174 12.0505 89.584 12.7432C89.9514 13.4358 90.1355 14.2744 90.1355 15.2587V15.5504C90.1355 16.5347 89.9514 17.3732 89.584 18.0658C89.2174 18.7585 88.7316 19.2872 88.1267 19.6517C87.5225 20.0041 86.8649 20.1804 86.1545 20.1804C85.6214 20.1804 85.1707 20.1136 84.8033 19.9798C84.4482 19.8583 84.1579 19.7003 83.9326 19.5059C83.7195 19.2993 83.5476 19.0927 83.417 18.8861H83.097V23.5708H80.8583ZM85.4786 18.1752C86.1782 18.1752 86.7526 17.9505 87.2025 17.5008C87.6646 17.039 87.896 16.3707 87.896 15.4957V15.3134C87.896 14.4384 87.6646 13.7761 87.2025 13.3265C86.7404 12.8647 86.166 12.6338 85.4786 12.6338C84.7919 12.6338 84.2167 12.8647 83.7546 13.3265C83.2925 13.7761 83.0619 14.4384 83.0619 15.3134V15.4957C83.0619 16.3707 83.2925 17.039 83.7546 17.5008C84.2167 17.9505 84.7919 18.1752 85.4786 18.1752Z" fill="#727272"/>
<path d="M95.0524 20.1803C93.9028 20.1803 92.9611 19.9251 92.2263 19.4147C91.4923 18.9044 91.0477 18.1752 90.8934 17.2273L92.9549 16.6805C93.0382 17.1058 93.1742 17.44 93.3644 17.683C93.5652 17.9261 93.8081 18.1023 94.093 18.2117C94.3886 18.3089 94.7087 18.3575 95.0524 18.3575C95.574 18.3575 95.959 18.2664 96.2072 18.0841C96.4562 17.8896 96.5807 17.6527 96.5807 17.3731C96.5807 17.0936 96.4624 16.881 96.2256 16.7351C95.988 16.5772 95.6092 16.4496 95.0883 16.3524L94.5903 16.2612C93.9739 16.1397 93.4117 15.9756 92.9022 15.7691C92.392 15.5503 91.9834 15.2526 91.6756 14.8758C91.3678 14.4992 91.2135 14.0131 91.2135 13.4176C91.2135 12.5183 91.5335 11.8317 92.1736 11.3578C92.8129 10.8717 93.6546 10.6287 94.6972 10.6287C95.6802 10.6287 96.4983 10.8534 97.1498 11.3031C97.8013 11.7528 98.2275 12.3421 98.4292 13.0713L96.3501 13.7275C96.2554 13.2657 96.0598 12.9376 95.7635 12.7431C95.4786 12.5487 95.1234 12.4515 94.6972 12.4515C94.2702 12.4515 93.9448 12.5305 93.7195 12.6884C93.4942 12.8343 93.3819 13.0409 93.3819 13.3082C93.3819 13.5998 93.5003 13.8186 93.7371 13.9644C93.9739 14.0981 94.2939 14.2014 94.6972 14.2743L95.1944 14.3655C95.8582 14.487 96.4562 14.6511 96.9894 14.8577C97.5347 15.0521 97.9609 15.3376 98.2695 15.7144C98.5888 16.079 98.7492 16.5772 98.7492 17.2091C98.7492 18.157 98.4116 18.8922 97.7364 19.4147C97.0726 19.9251 96.1782 20.1803 95.0524 20.1803Z" fill="#727272"/>
<path d="M103.271 20.071C102.584 20.071 101.98 19.913 101.458 19.5971C100.949 19.269 100.552 18.8193 100.267 18.2481C99.9833 17.677 99.8412 17.0208 99.8412 16.2795V10.8838H102.081V16.0972C102.081 16.7777 102.24 17.2881 102.56 17.6284C102.892 17.9686 103.36 18.1388 103.964 18.1388C104.652 18.1388 105.185 17.9079 105.564 17.4461C105.943 16.9721 106.133 16.3159 106.133 15.4774V10.8838H108.372V19.9251H106.168V18.7403H105.849C105.706 19.0441 105.439 19.3418 105.049 19.6335C104.658 19.9251 104.065 20.071 103.271 20.071Z" fill="#727272"/>
<path d="M110.064 19.9251V10.8838H112.268V11.8681H112.588C112.742 11.5643 112.997 11.3031 113.352 11.0843C113.707 10.8534 114.176 10.738 114.756 10.738C115.384 10.738 115.888 10.8656 116.267 11.1208C116.646 11.3639 116.936 11.6858 117.138 12.0869H117.458C117.659 11.6981 117.943 11.376 118.311 11.1208C118.678 10.8656 119.199 10.738 119.874 10.738C120.42 10.738 120.912 10.8595 121.35 11.1026C121.8 11.3335 122.156 11.6919 122.416 12.178C122.689 12.652 122.825 13.2535 122.825 13.9827V19.9251H120.585V14.1467C120.585 13.6485 120.461 13.2778 120.213 13.0348C119.964 12.7796 119.614 12.652 119.164 12.652C118.655 12.652 118.257 12.8221 117.973 13.1624C117.701 13.4905 117.565 13.9644 117.565 14.5842V19.9251H115.325V14.1467C115.325 13.6485 115.201 13.2778 114.952 13.0348C114.703 12.7796 114.354 12.652 113.903 12.652C113.393 12.652 112.996 12.8221 112.712 13.1624C112.439 13.4905 112.303 13.9644 112.303 14.5842V19.9251H110.064Z" fill="#727272"/>
<path d="M30.2364 13.0897C30.2364 9.86669 28.988 6.77562 26.7659 4.49658C24.5439 2.21754 21.5301 0.937187 18.3876 0.937186C15.2452 0.937186 12.2314 2.21754 10.0094 4.49658C7.78729 6.77562 6.53894 9.86669 6.53894 13.0897H10.2417C11.4687 13.0897 12.4256 12.0351 12.875 10.8641C13.1701 10.0953 13.6178 9.38874 14.1985 8.79313C15.3095 7.65362 16.8164 7.01345 18.3876 7.01345C19.9589 7.01345 21.4658 7.65362 22.5768 8.79313C23.6879 9.93265 24.312 11.4782 24.312 13.0897H30.2364Z" fill="#727272"/>
<path d="M23.4111 17.7403C24.0065 16.2658 24.313 14.6856 24.313 13.0897H30.2368C30.2368 19.8014 24.9319 25.2422 18.388 25.2422C17.3632 25.2422 16.3688 25.1088 15.4204 24.8579C15.957 24.7161 16.4844 24.5356 16.9986 24.3171C18.4362 23.7064 19.7423 22.8113 20.8426 21.6828C21.9429 20.5544 22.8157 19.2147 23.4111 17.7403Z" fill="#727272"/>
<path d="M0.615601 13.0896C0.6156 14.6856 0.922076 16.2658 1.51753 17.7402C2.11298 19.2147 2.98575 20.5543 4.08601 21.6828C5.18626 22.8112 6.49245 23.7064 7.93 24.3171C9.36754 24.9279 10.9083 25.2422 12.4643 25.2422C14.0203 25.2422 15.561 24.9279 16.9986 24.3171C18.4362 23.7064 19.7423 22.8112 20.8426 21.6828C21.9429 20.5543 22.8156 19.2147 23.4111 17.7402C24.0065 16.2658 24.313 14.6856 24.313 13.0896H20.6103C19.3833 13.0896 18.4264 14.1442 17.977 15.3152C17.9642 15.3485 17.9511 15.3818 17.9377 15.415C17.64 16.1521 17.2036 16.822 16.6534 17.3862C16.1033 17.9504 15.4502 18.398 14.7315 18.7034C14.0127 19.0088 13.2423 19.1659 12.4643 19.1659C11.6863 19.1659 10.9159 19.0088 10.1972 18.7034C9.47837 18.398 8.82531 17.9504 8.27514 17.3862C7.72503 16.822 7.28865 16.1521 6.99092 15.415C6.69319 14.6777 6.53995 13.8876 6.53995 13.0896H0.615601Z" fill="#727272"/>
<path d="M0.617554 13.0897C0.617554 6.37802 5.92239 0.937165 12.4662 0.937165C13.4908 0.937165 14.485 1.07053 15.4332 1.32128C13.3985 1.85888 11.5215 2.94684 10.0105 4.49657C7.78844 6.77558 6.54011 9.86667 6.54011 13.0897H0.617554Z" fill="#727272"/>
</g>
<defs>
<clipPath id="clip0_2_582">
<rect width="122.209" height="25.0686" fill="white" transform="translate(0.615601 0.937165)"/>
</clipPath>
</defs>
</svg>
