<svg width="125" height="25" viewBox="0 0 125 25" fill="none" xmlns="http://www.w3.org/2000/svg">
<g clip-path="url(#clip0_2_612)">
<path d="M30.2039 1.48018H33.3072V18.9289H38.4135V21.8371H30.2039V1.48018Z" fill="#727272"/>
<path d="M44.2772 22.1279C42.7537 22.1279 41.5877 21.682 40.7789 20.7901C39.9702 19.8983 39.5658 18.6381 39.5658 17.0096V6.3077C39.5658 4.67915 39.9702 3.41896 40.7789 2.52714C41.5877 1.63531 42.7537 1.1894 44.2772 1.1894C45.8006 1.1894 46.9667 1.63531 47.7755 2.52714C48.5842 3.41896 48.9885 4.67915 48.9885 6.3077V17.0096C48.9885 18.6381 48.5842 19.8983 47.7755 20.7901C46.9667 21.682 45.8006 22.1279 44.2772 22.1279ZM44.2772 19.2198C45.3492 19.2198 45.8853 18.5509 45.8853 17.2131V6.10413C45.8853 4.76639 45.3492 4.09752 44.2772 4.09752C43.2051 4.09752 42.6691 4.76639 42.6691 6.10413V17.2131C42.6691 18.5509 43.2051 19.2198 44.2772 19.2198Z" fill="#727272"/>
<path d="M55.4875 22.1279C53.9829 22.1279 52.8356 21.6917 52.0456 20.8192C51.2557 19.9274 50.8607 18.6575 50.8607 17.0096V6.3077C50.8607 4.65976 51.2557 3.39957 52.0456 2.52714C52.8356 1.63531 53.9829 1.1894 55.4875 1.1894C56.9921 1.1894 58.1394 1.63531 58.9293 2.52714C59.7193 3.39957 60.1143 4.65976 60.1143 6.3077V8.05256H57.1802V6.10413C57.1802 4.76639 56.6442 4.09752 55.5721 4.09752C54.5001 4.09752 53.9641 4.76639 53.9641 6.10413V17.2423C53.9641 18.5606 54.5001 19.2198 55.5721 19.2198C56.6442 19.2198 57.1802 18.5606 57.1802 17.2423V13.2581H55.6286V10.35H60.1143V17.0096C60.1143 18.6575 59.7193 19.9274 58.9293 20.8192C58.1394 21.6917 56.9921 22.1279 55.4875 22.1279Z" fill="#727272"/>
<path d="M66.5928 22.1279C65.0693 22.1279 63.9033 21.682 63.0946 20.7901C62.2858 19.8983 61.8814 18.6381 61.8814 17.0096V6.3077C61.8814 4.67915 62.2858 3.41896 63.0946 2.52714C63.9033 1.63531 65.0693 1.1894 66.5928 1.1894C68.1163 1.1894 69.2824 1.63531 70.0911 2.52714C70.8999 3.41896 71.3042 4.67915 71.3042 6.3077V17.0096C71.3042 18.6381 70.8999 19.8983 70.0911 20.7901C69.2824 21.682 68.1163 22.1279 66.5928 22.1279ZM66.5928 19.2198C67.6649 19.2198 68.2009 18.5509 68.2009 17.2131V6.10413C68.2009 4.76639 67.6649 4.09752 66.5928 4.09752C65.5208 4.09752 64.9847 4.76639 64.9847 6.10413V17.2131C64.9847 18.5509 65.5208 19.2198 66.5928 19.2198Z" fill="#727272"/>
<path d="M73.4088 1.48018H76.5122V21.8371H73.4088V1.48018Z" fill="#727272"/>
<path d="M78.8362 1.48018H83.4065C84.9486 1.48018 86.1053 1.9067 86.8767 2.75975C87.6482 3.6128 88.0335 4.86329 88.0335 6.51123V8.51782C88.0335 10.1658 87.6482 11.4162 86.8767 12.2693C86.1053 13.1223 84.9486 13.5489 83.4065 13.5489H81.9398V21.8371H78.8362V1.48018ZM83.4065 10.6407C83.9145 10.6407 84.2905 10.4953 84.5353 10.2045C84.7986 9.9137 84.9299 9.41936 84.9299 8.72138V6.30766C84.9299 5.60971 84.7986 5.11532 84.5353 4.82451C84.2905 4.5337 83.9145 4.3883 83.4065 4.3883H81.9398V10.6407H83.4065Z" fill="#727272"/>
<path d="M93.8631 22.1279C92.3591 22.1279 91.221 21.6917 90.4495 20.8192C89.6789 19.9274 89.2928 18.6575 89.2928 17.0096V15.8463H92.227V17.2423C92.227 18.5606 92.763 19.2198 93.8351 19.2198C94.3618 19.2198 94.7565 19.0646 95.0198 18.7545C95.3018 18.4249 95.4432 17.9014 95.4432 17.184C95.4432 16.331 95.2552 15.5846 94.8792 14.9448C94.5032 14.2856 93.8071 13.5004 92.791 12.5892C91.5123 11.426 90.6189 10.3791 90.1108 9.44847C89.6035 8.49848 89.3495 7.43217 89.3495 6.24954C89.3495 4.64037 89.7441 3.39957 90.5342 2.52714C91.3243 1.63531 92.4717 1.1894 93.9765 1.1894C95.4619 1.1894 96.5813 1.63531 97.3333 2.52714C98.1048 3.39957 98.4901 4.65976 98.4901 6.3077V7.15105H95.5559V6.10413C95.5559 5.40618 95.4246 4.9021 95.1612 4.5919C94.8979 4.26232 94.5125 4.09752 94.0045 4.09752C92.9697 4.09752 92.4531 4.747 92.4531 6.04596C92.4531 6.78269 92.6411 7.47094 93.0171 8.11073C93.4117 8.75049 94.1171 9.52598 95.1333 10.4372C96.4306 11.6005 97.324 12.6571 97.8134 13.6071C98.3021 14.5571 98.5468 15.6718 98.5468 16.9514C98.5468 18.6188 98.142 19.8983 97.3333 20.7901C96.5433 21.682 95.3865 22.1279 93.8631 22.1279Z" fill="#727272"/>
<path d="M104.84 22.1278C103.336 22.1278 102.188 21.6916 101.398 20.8192C100.608 19.9274 100.213 18.6575 100.213 17.0095V1.48018H103.317V17.2422C103.317 17.9401 103.448 18.4442 103.712 18.7545C103.994 19.0646 104.389 19.2197 104.896 19.2197C105.404 19.2197 105.79 19.0646 106.053 18.7545C106.335 18.4442 106.477 17.9401 106.477 17.2422V1.48018H109.467V17.0095C109.467 18.6575 109.072 19.9274 108.282 20.8192C107.492 21.6916 106.344 22.1278 104.84 22.1278Z" fill="#727272"/>
<path d="M111.677 1.48018H116.106L118.081 16.0498H118.137L120.112 1.48018H124.541V21.8371H121.607V6.42399H121.551L119.294 21.8371H116.698L114.441 6.42399H114.385V21.8371H111.677V1.48018Z" fill="#727272"/>
<path d="M0.243164 21.8371C4.06105 21.8371 7.15602 18.6467 7.15602 14.7113C7.15602 10.7757 4.06105 7.58535 0.243164 7.58535V12.5734C1.38852 12.5734 2.31701 13.5306 2.31701 14.7113C2.31701 15.8919 1.38852 16.849 0.243164 16.849V21.8371Z" fill="#727272"/>
<path d="M23.286 9.9606C22.1047 9.57486 20.8467 9.36673 19.5415 9.36673C12.7012 9.36673 7.15601 15.0828 7.15601 22.1339C7.15601 22.8417 7.21188 23.5359 7.31929 24.2123H15.0148C14.7401 23.5774 14.5874 22.8741 14.5874 22.1339C14.5874 19.3135 16.8054 17.027 19.5415 17.027C21.037 17.027 22.3776 17.71 23.286 18.7899V9.9606Z" fill="#727272"/>
<path d="M1.45898 0.459432C2.03211 5.80377 6.42765 9.96062 11.765 9.96062C17.1023 9.96062 21.4979 5.80377 22.071 0.459432H14.6554C14.1976 1.64246 13.076 2.47842 11.765 2.47842C10.454 2.47842 9.33242 1.64246 8.87454 0.459432H1.45898Z" fill="#727272"/>
</g>
<defs>
<clipPath id="clip0_2_612">
<rect width="124.298" height="24.024" fill="white" transform="translate(0.243164 0.459428)"/>
</clipPath>
</defs>
</svg>
