<svg width="131" height="31" viewBox="0 0 131 31" fill="none" xmlns="http://www.w3.org/2000/svg">
<g clip-path="url(#clip0_2_541)">
<path fill-rule="evenodd" clip-rule="evenodd" d="M41.8552 2.34184C41.8552 1.31535 42.6545 0.483207 43.6405 0.483207H46.7507C47.4524 0.483207 48.1325 0.736396 48.6752 1.19968L49.6213 2.0074L49.6449 2.02987C49.6668 2.0222 49.6886 2.01471 49.7105 2.0074C51.4174 1.43823 53.4883 1.32999 55.602 1.32999C57.7157 1.32999 59.7866 1.43823 61.4935 2.0074C61.5154 2.01471 61.5373 2.0222 61.5591 2.02987L61.5828 2.0074L62.5289 1.19968C63.0715 0.736396 63.7516 0.483207 64.4534 0.483207H67.5635C68.5495 0.483207 69.3488 1.31535 69.3488 2.34184V3.49083C69.3488 4.3798 68.9891 5.22765 68.3579 5.82638L67.5947 6.55041C67.2221 6.90387 66.7748 7.16111 66.2891 7.30135L66.1085 7.35348C66.8158 9.11031 67.2065 10.9882 67.2065 12.5074C67.2065 18.6183 63.5746 21.2576 60.3745 23.5831C57.8543 25.4144 55.602 27.0511 55.602 30.0356C55.602 27.0511 53.3497 25.4144 50.8296 23.5831C47.6294 21.2576 43.9976 18.6183 43.9976 12.5074C43.9976 10.9882 44.3883 9.11031 45.0955 7.35348L44.9149 7.30135C44.4292 7.16111 43.982 6.90387 43.6094 6.55041L42.8461 5.82638C42.2149 5.22765 41.8552 4.3798 41.8552 3.49083V2.34184ZM57.9229 17.5033C57.9229 17.7953 57.8006 18.0752 57.583 18.2817C57.3654 18.4882 57.0702 18.6042 56.7624 18.6042C56.4967 18.6042 56.2404 18.5176 56.0353 18.3612C56.3844 19.3342 57.278 20.2561 58.637 18.7735C59.8368 17.3958 58.5837 14.4902 57.3628 12.7659C56.9559 12.1912 56.2878 11.9146 55.602 11.9146C54.9162 11.9146 54.2481 12.1912 53.8412 12.7659C52.6203 14.4902 51.3672 17.3958 52.567 18.7735C53.9261 20.2561 54.8196 19.3342 55.1688 18.3612C54.9636 18.5176 54.7073 18.6042 54.4416 18.6042C54.1338 18.6042 53.8386 18.4882 53.621 18.2817C53.4034 18.0752 53.2811 17.7953 53.2811 17.5033H57.9229ZM51.1581 8.90204H47.9253L50.473 11.0259C51.0337 11.4932 51.8532 11.3438 52.2001 10.711C52.6381 9.91207 52.0563 8.90204 51.1581 8.90204ZM60.0459 8.90204H63.2788L60.731 11.0259C60.1703 11.4932 59.3509 11.3438 59.0039 10.711C58.5659 9.91207 59.1477 8.90204 60.0459 8.90204Z" fill="#727272"/>
<path d="M73.2 21.4161H76.064V10.0458H73.2V21.4161ZM73.2 8.27268H76.064V5.56863H73.2V8.27268Z" fill="#727272"/>
<path d="M77.9086 25.1397H80.7726V20.1306H80.8147C81.4254 21.1058 82.4152 21.7486 83.9314 21.7486C86.7112 21.7486 88.6065 19.4213 88.6065 15.7421C88.6065 12.1958 86.7744 9.73553 83.9104 9.73553C82.4362 9.73553 81.4254 10.467 80.7305 11.4643H80.6673V10.0458H77.9086V25.1397ZM83.3207 19.244C81.6149 19.244 80.7094 17.892 80.7094 15.8307C80.7094 13.7916 81.4254 12.1736 83.2154 12.1736C84.9844 12.1736 85.7004 13.6808 85.7004 15.8307C85.7004 17.9806 84.7738 19.244 83.3207 19.244Z" fill="#727272"/>
<path d="M94.3198 21.7486C97.0153 21.7486 98.8685 20.3744 98.8685 18.0915C98.8685 15.4318 96.8679 14.8998 95.0568 14.5009C93.5195 14.1684 92.0875 14.0797 92.0875 13.1045C92.0875 12.2844 92.8246 11.8411 93.9407 11.8411C95.1621 11.8411 95.8992 12.2844 96.0255 13.5035H98.6158C98.4052 11.2205 96.8258 9.73553 93.9828 9.73553C91.5189 9.73553 89.5815 10.9102 89.5815 13.3705C89.5815 15.8529 91.4768 16.407 93.4142 16.8059C94.8884 17.1162 96.2572 17.2271 96.2572 18.3131C96.2572 19.111 95.5412 19.6208 94.2777 19.6208C92.9931 19.6208 92.1086 19.0445 91.9191 17.7368H89.2656C89.4341 20.1527 91.182 21.7486 94.3198 21.7486Z" fill="#727272"/>
<path d="M109.743 21.4161V10.0458H106.879V16.6064C106.879 18.1136 106.058 19.1775 104.71 19.1775C103.489 19.1775 102.92 18.4461 102.92 17.1162V10.0458H100.077V17.626C100.077 20.1084 101.425 21.7264 103.826 21.7264C105.342 21.7264 106.184 21.128 106.921 20.0862H106.984V21.4161H109.743Z" fill="#727272"/>
<path d="M111.596 21.4161H114.46V14.8112C114.46 13.304 115.239 12.3288 116.397 12.3288C117.45 12.3288 118.061 12.9937 118.061 14.2792V21.4161H120.925V14.8112C120.925 13.304 121.662 12.3288 122.862 12.3288C123.915 12.3288 124.526 12.9937 124.526 14.2792V21.4161H127.39V13.7694C127.39 11.287 126.105 9.73553 123.831 9.73553C122.462 9.73553 121.325 10.4891 120.588 11.7303H120.546C120.019 10.5334 118.924 9.73553 117.555 9.73553C116.06 9.73553 115.007 10.5334 114.417 11.5752H114.354V10.0458H111.596V21.4161Z" fill="#727272"/>
<path d="M0.893311 21.4161H3.75733V5.56863H0.893311V21.4161Z" fill="#727272"/>
<path d="M10.76 21.7486C14.1084 21.7486 16.4038 19.1332 16.4038 15.7421C16.4038 12.3509 14.1084 9.73553 10.76 9.73553C7.41164 9.73553 5.11621 12.3509 5.11621 15.7421C5.11621 19.1332 7.41164 21.7486 10.76 21.7486ZM10.76 19.4435C8.99109 19.4435 8.02238 17.9585 8.02238 15.7421C8.02238 13.5256 8.99109 12.0185 10.76 12.0185C12.5079 12.0185 13.4977 13.5256 13.4977 15.7421C13.4977 17.9585 12.5079 19.4435 10.76 19.4435Z" fill="#727272"/>
<path d="M22.4945 25.2949C24.095 25.2949 25.4849 24.8959 26.3904 24.0093C27.1907 23.2336 27.675 22.1475 27.675 20.5517V10.0458H24.9163V11.2427H24.8742C24.2214 10.2896 23.2316 9.73553 21.8838 9.73553C19.1462 9.73553 17.2087 11.9076 17.2087 15.2988C17.2087 18.7342 19.5673 20.729 21.9681 20.729C23.3369 20.729 24.1582 20.1527 24.79 19.3992H24.8531V20.6404C24.8531 22.1919 24.074 23.0119 22.4524 23.0119C21.1257 23.0119 20.515 22.4578 20.2833 21.7486H17.4404C17.7352 23.965 19.5463 25.2949 22.4945 25.2949ZM22.4524 18.3131C20.9783 18.3131 20.0096 17.1827 20.0096 15.2544C20.0096 13.3483 20.9783 12.1514 22.4314 12.1514C24.1582 12.1514 25.0005 13.57 25.0005 15.2323C25.0005 16.9168 24.2635 18.3131 22.4524 18.3131Z" fill="#727272"/>
<path d="M34.6362 21.7486C37.9846 21.7486 40.28 19.1332 40.28 15.7421C40.28 12.3509 37.9846 9.73553 34.6362 9.73553C31.2879 9.73553 28.9924 12.3509 28.9924 15.7421C28.9924 19.1332 31.2879 21.7486 34.6362 21.7486ZM34.6362 19.4435C32.8673 19.4435 31.8986 17.9585 31.8986 15.7421C31.8986 13.5256 32.8673 12.0185 34.6362 12.0185C36.3841 12.0185 37.3739 13.5256 37.3739 15.7421C37.3739 17.9585 36.3841 19.4435 34.6362 19.4435Z" fill="#727272"/>
<path d="M127.26 7.56341C127.26 7.05336 127.653 6.6399 128.138 6.6399H129.893C130.377 6.6399 130.77 7.05336 130.77 7.56341C130.77 8.07342 130.377 8.48693 129.893 8.48693H128.138C127.653 8.48693 127.26 8.07342 127.26 7.56341Z" fill="#727272"/>
</g>
<defs>
<clipPath id="clip0_2_541">
<rect width="130.565" height="30.2912" fill="white" transform="translate(0.412842 0.325857)"/>
</clipPath>
</defs>
</svg>
