<svg width="88" height="45" viewBox="0 0 88 45" fill="none" xmlns="http://www.w3.org/2000/svg">
<g clip-path="url(#clip0_2_596)">
<path d="M0.189575 39.3722H8.28785V37.0473H2.65901V26.1916H0.189575V39.3722Z" fill="#727272"/>
<path d="M13.1549 39.6468C14.1354 39.6468 14.9979 39.4271 15.7424 38.9877C16.4929 38.5423 17.0769 37.929 17.4946 37.148C17.9183 36.3608 18.1301 35.4546 18.1301 34.4295C18.1301 33.4104 17.9212 32.5103 17.5037 31.7292C17.086 30.9421 16.5019 30.3258 15.7514 29.8803C15.007 29.4348 14.1415 29.2121 13.1549 29.2121C12.1865 29.2121 11.3301 29.4318 10.5856 29.8712C9.84118 30.3105 9.2571 30.9238 8.83338 31.711C8.40974 32.492 8.19788 33.3982 8.19788 34.4295C8.19788 35.4485 8.40367 36.3516 8.81527 37.1388C9.23285 37.9199 9.81393 38.5331 10.5584 38.9786C11.3029 39.424 12.1684 39.6468 13.1549 39.6468ZM13.1549 37.3219C12.3862 37.3219 11.8022 37.0625 11.4027 36.5439C11.0093 36.0191 10.8126 35.3143 10.8126 34.4295C10.8126 33.5691 11.0002 32.8734 11.3755 32.3425C11.7568 31.8056 12.3499 31.537 13.1549 31.537C13.9357 31.537 14.5228 31.7994 14.9162 32.3242C15.3157 32.849 15.5154 33.5507 15.5154 34.4295C15.5154 35.2777 15.3187 35.9733 14.9252 36.5164C14.5379 37.0533 13.9478 37.3219 13.1549 37.3219Z" fill="#727272"/>
<path d="M23.0135 39.6468C23.4735 39.6468 23.8972 39.5918 24.2846 39.482C24.678 39.3722 25.0351 39.2166 25.3559 39.0152V40.0129C25.368 40.379 25.2741 40.6841 25.0744 40.9282C24.8807 41.1784 24.6205 41.3645 24.2936 41.4866C23.9668 41.6147 23.6187 41.6788 23.2496 41.6788C22.9046 41.6788 22.5838 41.6025 22.2872 41.45C21.9967 41.2974 21.7727 41.0747 21.6154 40.7818L19.3276 41.8985C19.7028 42.5392 20.2384 43.0548 20.9345 43.4453C21.6305 43.842 22.3962 44.0403 23.2314 44.0403C23.9517 44.0403 24.6205 43.9427 25.2378 43.7474C25.8552 43.5582 26.3757 43.2684 26.7994 42.8778C27.2291 42.4873 27.5227 41.99 27.68 41.3859C27.7345 41.1723 27.7708 40.9557 27.789 40.736C27.8131 40.5224 27.8253 40.2936 27.8253 40.0495V29.4867H25.6645V30.0359C25.3316 29.7735 24.9533 29.5721 24.5297 29.4318C24.112 29.2853 23.6491 29.2121 23.1406 29.2121C22.2025 29.2121 21.3854 29.4379 20.6894 29.8894C19.9933 30.341 19.4516 30.9604 19.0643 31.7476C18.6829 32.5286 18.4923 33.4226 18.4923 34.4295C18.4923 35.418 18.6799 36.3058 19.0552 37.093C19.4365 37.8802 19.9661 38.5026 20.6439 38.9603C21.3218 39.4179 22.1117 39.6468 23.0135 39.6468ZM23.413 37.4317C22.8804 37.4317 22.4446 37.2974 22.1056 37.029C21.7667 36.7605 21.5155 36.4005 21.3521 35.9489C21.1887 35.4912 21.107 34.9848 21.107 34.4295C21.107 33.8802 21.1917 33.3799 21.3612 32.9283C21.5307 32.4707 21.7909 32.1076 22.1419 31.8391C22.499 31.5645 22.953 31.4272 23.5038 31.4272C24.2785 31.4272 24.8323 31.7049 25.1652 32.2601C25.4981 32.8093 25.6645 33.5324 25.6645 34.4295C25.6645 35.3264 25.495 36.0526 25.1561 36.6079C24.8232 37.1571 24.2422 37.4317 23.413 37.4317Z" fill="#727272"/>
<path d="M33.6907 39.6468C34.6712 39.6468 35.5337 39.4271 36.2781 38.9877C37.0286 38.5423 37.6127 37.929 38.0304 37.148C38.454 36.3608 38.6659 35.4546 38.6659 34.4295C38.6659 33.4104 38.457 32.5103 38.0394 31.7292C37.6218 30.9421 37.0377 30.3258 36.2872 29.8803C35.5428 29.4348 34.6772 29.2121 33.6907 29.2121C32.7222 29.2121 31.8658 29.4318 31.1214 29.8712C30.3769 30.3105 29.7929 30.9238 29.3692 31.711C28.9455 32.492 28.7336 33.3982 28.7336 34.4295C28.7336 35.4485 28.9394 36.3516 29.351 37.1388C29.7686 37.9199 30.3497 38.5331 31.0941 38.9786C31.8386 39.424 32.7041 39.6468 33.6907 39.6468ZM33.6907 37.3219C32.922 37.3219 32.3379 37.0625 31.9384 36.5439C31.545 36.0191 31.3484 35.3143 31.3484 34.4295C31.3484 33.5691 31.536 32.8734 31.9113 32.3425C32.2925 31.8056 32.8857 31.537 33.6907 31.537C34.4715 31.537 35.0586 31.7994 35.452 32.3242C35.8514 32.849 36.0512 33.5507 36.0512 34.4295C36.0512 35.2777 35.8544 35.9733 35.461 36.5164C35.0737 37.0533 34.4835 37.3219 33.6907 37.3219Z" fill="#727272"/>
<path d="M39.754 28.1137H42.2234V25.917H39.754V28.1137ZM39.754 39.3722H42.2234V29.4867H39.754V39.3722Z" fill="#727272"/>
<path d="M43.838 43.7657H46.3256V39.0152C46.6464 39.2166 47.0005 39.3722 47.3878 39.482C47.7812 39.5918 48.208 39.6468 48.6679 39.6468C49.5698 39.6468 50.3597 39.4179 51.0375 38.9603C51.7154 38.5026 52.2419 37.8802 52.6172 37.093C52.9985 36.3058 53.1892 35.418 53.1892 34.4295C53.1892 33.4226 52.9955 32.5286 52.6082 31.7476C52.2268 30.9604 51.6882 30.341 50.9921 29.8894C50.2961 29.4379 49.479 29.2121 48.5409 29.2121C48.0324 29.2121 47.5664 29.2853 47.1427 29.4318C46.7251 29.5721 46.3498 29.7735 46.017 30.0359V29.4867H43.838V43.7657ZM48.2684 37.4317C47.4453 37.4317 46.8643 37.1571 46.5254 36.6079C46.1864 36.0526 46.017 35.3264 46.017 34.4295C46.017 33.5324 46.1834 32.8093 46.5163 32.2601C46.8552 31.7049 47.409 31.4272 48.1777 31.4272C48.7285 31.4272 49.1794 31.5645 49.5304 31.8391C49.8875 32.1076 50.1508 32.4707 50.3203 32.9283C50.4898 33.3799 50.5745 33.8802 50.5745 34.4295C50.5745 34.9848 50.4928 35.4912 50.3293 35.9489C50.1659 36.4005 49.9148 36.7605 49.5758 37.029C49.2369 37.2974 48.8011 37.4317 48.2684 37.4317Z" fill="#727272"/>
<path d="M57.6628 39.6468C58.9459 39.6468 59.9506 39.3569 60.6769 38.7772C61.4032 38.1975 61.7663 37.4012 61.7663 36.3882C61.7663 35.6194 61.5303 35.0122 61.0582 34.5668C60.5921 34.1213 59.7993 33.7521 58.6795 33.4592C57.9169 33.2639 57.348 33.1053 56.9727 32.9832C56.6035 32.8612 56.3584 32.7422 56.2374 32.6263C56.1224 32.5103 56.0649 32.3669 56.0649 32.1961C56.0649 31.9093 56.2011 31.6896 56.4734 31.537C56.7518 31.3845 57.118 31.3235 57.572 31.354C58.5343 31.4272 59.0609 31.8422 59.1516 32.5988L61.6755 32.1411C61.5485 31.2442 61.1126 30.5333 60.3682 30.0085C59.6238 29.4776 58.6735 29.2121 57.5175 29.2121C56.3312 29.2121 55.3839 29.4928 54.6758 30.0542C53.9677 30.6156 53.6136 31.3722 53.6136 32.3242C53.6136 33.0809 53.8587 33.6789 54.349 34.1182C54.8392 34.5515 55.6835 34.9237 56.8819 35.235C57.5901 35.4241 58.1107 35.5766 58.4435 35.6926C58.7825 35.8085 59.0003 35.9275 59.0972 36.0496C59.194 36.1655 59.2424 36.3211 59.2424 36.5164C59.2424 36.8276 59.1214 37.0717 58.8793 37.2487C58.6372 37.4195 58.2922 37.5049 57.8443 37.5049C57.2996 37.5049 56.8487 37.3737 56.4916 37.1113C56.1405 36.8489 55.9136 36.4859 55.8107 36.0221L53.2867 36.4065C53.4502 37.4378 53.9102 38.2372 54.6668 38.8047C55.4294 39.3661 56.428 39.6468 57.6628 39.6468Z" fill="#727272"/>
<path d="M66.322 39.6651C67.0301 39.6651 67.6475 39.5461 68.1741 39.3081C68.7006 39.0701 69.1425 38.7528 69.4996 38.3562V39.3722H71.6782V29.4867H69.1908V34.5027C69.1908 35.1129 69.1213 35.6071 68.9821 35.9855C68.8489 36.3577 68.6764 36.6415 68.4645 36.8367C68.2527 37.0259 68.0258 37.154 67.7837 37.2212C67.5415 37.2883 67.3146 37.3219 67.1028 37.3219C66.5762 37.3219 66.1676 37.2029 65.8771 36.9649C65.5927 36.7269 65.3869 36.431 65.2597 36.0771C65.1326 35.7231 65.057 35.3723 65.0328 35.0244C65.0086 34.6705 64.9964 34.3806 64.9964 34.1548V29.4867H62.4907V35.0336C62.4907 35.1983 62.5029 35.4607 62.527 35.8207C62.5512 36.1808 62.6208 36.5805 62.7358 37.0198C62.8509 37.4531 63.0415 37.871 63.3078 38.2738C63.5802 38.6765 63.9585 39.0091 64.4427 39.2715C64.9269 39.5339 65.5533 39.6651 66.322 39.6651Z" fill="#727272"/>
<path d="M73.1082 39.3722H75.5955V33.3859C75.5955 32.8185 75.7496 32.3578 76.0585 32.0038C76.3731 31.6438 76.7875 31.4638 77.3026 31.4638C77.8411 31.4638 78.262 31.6469 78.5644 32.013C78.8726 32.373 79.0274 32.8795 79.0274 33.5324V39.3722H81.4969V33.3859C81.4969 32.8185 81.651 32.3578 81.9599 32.0038C82.2745 31.6438 82.6889 31.4638 83.2032 31.4638C83.7425 31.4638 84.1627 31.6469 84.4651 32.013C84.774 32.373 84.9288 32.8795 84.9288 33.5324V39.3722H87.3976V32.8734C87.3976 31.7933 87.1102 30.9207 86.5352 30.2556C85.9667 29.5844 85.1221 29.2487 84.0022 29.2487C83.373 29.2487 82.7952 29.386 82.2681 29.6606C81.7416 29.9352 81.3215 30.3105 81.0062 30.7865C80.7522 30.3227 80.3891 29.9505 79.9169 29.6698C79.4447 29.3891 78.8576 29.2487 78.1557 29.2487C77.5622 29.2487 77.0179 29.3677 76.5215 29.6057C76.025 29.8376 75.6134 30.158 75.2867 30.5668V29.4867H73.1082V39.3722Z" fill="#727272"/>
<path d="M0.164063 10.9646C0.164063 5.20528 4.79493 0.536453 10.5074 0.536453C13.6045 0.536454 16.3837 1.90882 18.2793 4.08328C21.7187 7.97637 24.5628 7.77155 27.5831 4.89752C29.065 3.48684 31.0637 2.62207 33.2627 2.62207C37.8327 2.62208 41.5374 6.35714 41.5374 10.9646C41.5374 15.572 37.8327 19.3071 33.2627 19.3071C31.0637 19.3071 29.065 18.4422 27.5831 17.0316C24.5635 14.1582 21.7201 13.9528 18.2818 17.8429C16.3861 20.0191 13.6058 21.3927 10.5074 21.3927C4.79493 21.3927 0.164062 16.7238 0.164063 10.9646Z" fill="#727272"/>
<path d="M0.164063 10.9646C0.164063 5.20528 4.79493 0.536453 10.5074 0.536453C13.6045 0.536454 16.3837 1.90882 18.2793 4.08328C21.7187 7.97637 24.5628 7.77155 27.5831 4.89752C29.065 3.48684 31.0637 2.62207 33.2627 2.62207C37.8327 2.62208 41.5374 6.35714 41.5374 10.9646C41.5374 15.572 37.8327 19.3071 33.2627 19.3071C31.0637 19.3071 29.065 18.4422 27.5831 17.0316C24.5635 14.1582 21.7201 13.9528 18.2818 17.8429C16.3861 20.0191 13.6058 21.3927 10.5074 21.3927C4.79493 21.3927 0.164062 16.7238 0.164063 10.9646Z" fill="#727272"/>
<path d="M0.164063 10.9646C0.164063 5.20528 4.79493 0.536453 10.5074 0.536453C13.6045 0.536454 16.3837 1.90882 18.2793 4.08328C21.7187 7.97637 24.5628 7.77155 27.5831 4.89752C29.065 3.48684 31.0637 2.62207 33.2627 2.62207C37.8327 2.62208 41.5374 6.35714 41.5374 10.9646C41.5374 15.572 37.8327 19.3071 33.2627 19.3071C31.0637 19.3071 29.065 18.4422 27.5831 17.0316C24.5635 14.1582 21.7201 13.9528 18.2818 17.8429C16.3861 20.0191 13.6058 21.3927 10.5074 21.3927C4.79493 21.3927 0.164062 16.7238 0.164063 10.9646Z" fill="#727272"/>
<path d="M0.164063 10.9646C0.164063 5.20528 4.79493 0.536453 10.5074 0.536453C13.6045 0.536454 16.3837 1.90882 18.2793 4.08328C21.7187 7.97637 24.5628 7.77155 27.5831 4.89752C29.065 3.48684 31.0637 2.62207 33.2627 2.62207C37.8327 2.62208 41.5374 6.35714 41.5374 10.9646C41.5374 15.572 37.8327 19.3071 33.2627 19.3071C31.0637 19.3071 29.065 18.4422 27.5831 17.0316C24.5635 14.1582 21.7201 13.9528 18.2818 17.8429C16.3861 20.0191 13.6058 21.3927 10.5074 21.3927C4.79493 21.3927 0.164062 16.7238 0.164063 10.9646Z" fill="#727272"/>
<path d="M0.164063 10.9646C0.164063 5.20528 4.79493 0.536453 10.5074 0.536453C13.6045 0.536454 16.3837 1.90882 18.2793 4.08328C21.7187 7.97637 24.5628 7.77155 27.5831 4.89752C29.065 3.48684 31.0637 2.62207 33.2627 2.62207C37.8327 2.62208 41.5374 6.35714 41.5374 10.9646C41.5374 15.572 37.8327 19.3071 33.2627 19.3071C31.0637 19.3071 29.065 18.4422 27.5831 17.0316C24.5635 14.1582 21.7201 13.9528 18.2818 17.8429C16.3861 20.0191 13.6058 21.3927 10.5074 21.3927C4.79493 21.3927 0.164062 16.7238 0.164063 10.9646Z" fill="#727272"/>
<path d="M0.164063 10.9646C0.164063 5.20528 4.79493 0.536453 10.5074 0.536453C13.6045 0.536454 16.3837 1.90882 18.2793 4.08328C21.7187 7.97637 24.5628 7.77155 27.5831 4.89752C29.065 3.48684 31.0637 2.62207 33.2627 2.62207C37.8327 2.62208 41.5374 6.35714 41.5374 10.9646C41.5374 15.572 37.8327 19.3071 33.2627 19.3071C31.0637 19.3071 29.065 18.4422 27.5831 17.0316C24.5635 14.1582 21.7201 13.9528 18.2818 17.8429C16.3861 20.0191 13.6058 21.3927 10.5074 21.3927C4.79493 21.3927 0.164062 16.7238 0.164063 10.9646Z" fill="#727272"/>
</g>
<defs>
<clipPath id="clip0_2_596">
<rect width="87.74" height="43.87" fill="white" transform="translate(0.164062 0.536453)"/>
</clipPath>
</defs>
</svg>
