<svg width="114" height="24" viewBox="0 0 114 24" fill="none" xmlns="http://www.w3.org/2000/svg">
<g clip-path="url(#clip0_2_556)">
<path fill-rule="evenodd" clip-rule="evenodd" d="M14.8831 7.69475C13.9647 7.06351 12.885 6.72657 11.7805 6.72657V0.981689C13.9895 0.981689 16.149 1.65555 17.9857 2.91806C19.8225 4.18057 21.2541 5.97503 22.0995 8.07449C22.9448 10.174 23.166 12.4842 22.735 14.713C22.3041 16.9418 21.2403 18.9891 19.6783 20.5959C18.1163 22.2028 16.1261 23.2971 13.9595 23.7404C11.7929 24.1838 9.54711 23.9562 7.50622 23.0866C5.46534 22.2169 3.72095 20.7443 2.49367 18.8548C1.26639 16.9653 0.611328 14.7439 0.611328 12.4714H6.19591C6.19591 13.6077 6.52345 14.7184 7.13708 15.6631C7.75071 16.6079 8.62291 17.3442 9.64338 17.779C10.6638 18.2139 11.7867 18.3276 12.87 18.1059C13.9533 17.8843 14.9483 17.3371 15.7294 16.5337C16.5104 15.7302 17.0423 14.7066 17.2577 13.5922C17.4732 12.4778 17.3627 11.3227 16.94 10.273C16.5173 9.22324 15.8015 8.326 14.8831 7.69475Z" fill="#727272"/>
<path fill-rule="evenodd" clip-rule="evenodd" d="M6.19591 0.981692C6.19591 1.73612 6.05146 2.48316 5.77081 3.18017C5.49016 3.87716 5.0788 4.51047 4.56022 5.04394C4.04165 5.5774 3.42601 6.00056 2.74846 6.28927C2.0709 6.57797 1.3447 6.72657 0.611328 6.72657L0.611328 12.4715C2.07808 12.4715 3.53048 12.1743 4.88559 11.5969C6.2407 11.0194 7.47198 10.1731 8.5091 9.10616C9.54627 8.03928 10.369 6.77265 10.9303 5.37863C11.4916 3.98463 11.7805 2.49054 11.7805 0.981689L6.19591 0.981692Z" fill="#727272"/>
<path d="M70.7643 9.28447H68.0547V18.1387H70.7643V9.28447Z" fill="#727272"/>
<path d="M68.3562 7.62656C68.6393 7.91805 68.9934 8.0638 69.4183 8.0638C69.8433 8.0638 70.1918 7.91805 70.4632 7.62656C70.7352 7.32294 70.8709 6.95854 70.8709 6.53345C70.8709 6.09622 70.7352 5.73183 70.4632 5.44035C70.1918 5.14884 69.8433 5.0031 69.4183 5.0031C68.9934 5.0031 68.6393 5.14884 68.3562 5.44035C68.0842 5.73183 67.9485 6.09622 67.9485 6.53345C67.9485 6.95854 68.0842 7.32294 68.3562 7.62656Z" fill="#727272"/>
<path d="M29.1797 18.1387V5.27637H31.9602V15.6245H37.5035V18.1387H29.1797Z" fill="#727272"/>
<path fill-rule="evenodd" clip-rule="evenodd" d="M42.5109 18.339C41.6254 18.339 40.8226 18.1387 40.1023 17.7378C39.3939 17.3249 38.8331 16.7662 38.4199 16.0617C38.0067 15.3573 37.8 14.5678 37.8 13.6933C37.8 12.8188 38.0067 12.0355 38.4199 11.3432C38.8331 10.6508 39.3939 10.1043 40.1023 9.7035C40.8108 9.29051 41.6136 9.08403 42.5109 9.08403C43.4082 9.08403 44.2111 9.28447 44.9195 9.68524C45.6279 10.0861 46.1888 10.6387 46.602 11.3432C47.0152 12.0355 47.2218 12.8188 47.2218 13.6933C47.2218 14.5678 47.0152 15.3573 46.602 16.0617C46.1888 16.7662 45.6279 17.3249 44.9195 17.7378C44.2111 18.1387 43.4082 18.339 42.5109 18.339ZM42.5109 15.8067C42.9006 15.8067 43.2429 15.7217 43.5381 15.5516C43.8333 15.3695 44.0576 15.1205 44.2111 14.8047C44.3764 14.4768 44.459 14.1063 44.459 13.6933C44.459 13.2804 44.3764 12.9221 44.2111 12.6185C44.0458 12.3027 43.8156 12.0598 43.5204 11.8897C43.237 11.7075 42.9006 11.6164 42.5109 11.6164C42.1331 11.6164 41.7967 11.7075 41.5015 11.8897C41.2063 12.0598 40.9761 12.3027 40.8108 12.6185C40.6454 12.9343 40.5629 13.2986 40.5629 13.7115C40.5629 14.1124 40.6454 14.4768 40.8108 14.8047C40.9761 15.1205 41.2063 15.3695 41.5015 15.5516C41.7967 15.7217 42.1331 15.8067 42.5109 15.8067Z" fill="#727272"/>
<path fill-rule="evenodd" clip-rule="evenodd" d="M49.3674 21.6002C50.0876 21.9402 50.92 22.1103 51.8646 22.1103C52.7855 22.1103 53.6061 21.922 54.3262 21.5455C55.0465 21.169 55.6131 20.6467 56.0264 19.9787C56.4396 19.3107 56.6465 18.5213 56.6465 17.6103V9.28446H53.9897V9.87935C53.7921 9.70826 53.5677 9.56464 53.3168 9.44842C52.8563 9.21765 52.3309 9.10224 51.7406 9.10224C50.9495 9.10224 50.247 9.29659 49.6331 9.68523C49.019 10.0617 48.535 10.584 48.1808 11.252C47.8266 11.9079 47.6495 12.6488 47.6495 13.4747C47.6495 14.2885 47.8266 15.0293 48.1808 15.6974C48.535 16.3654 49.019 16.8937 49.6331 17.2824C50.247 17.671 50.9495 17.8654 51.7406 17.8654C52.3191 17.8654 52.8445 17.75 53.3168 17.5192C53.5455 17.4074 53.7521 17.2757 53.9366 17.124V17.6832C53.9366 18.3026 53.7418 18.7824 53.3522 19.1225C52.9744 19.4626 52.449 19.6325 51.776 19.6325C51.2329 19.6325 50.7665 19.5354 50.3769 19.341C49.9991 19.1468 49.6566 18.8613 49.3497 18.4848L47.6849 20.1973C48.0981 20.8046 48.659 21.2722 49.3674 21.6002ZM53.2282 15.1326C52.9566 15.3026 52.632 15.3877 52.2541 15.3877C51.8763 15.3877 51.5457 15.3026 51.2624 15.1326C50.9908 14.9625 50.7783 14.7318 50.6248 14.4403C50.4713 14.1366 50.3946 13.8148 50.3946 13.4747C50.3946 13.1103 50.4713 12.7824 50.6248 12.4909C50.7783 12.1994 50.9967 11.9686 51.2801 11.7986C51.5634 11.6285 51.8881 11.5435 52.2541 11.5435C52.632 11.5435 52.9566 11.6285 53.2282 11.7986C53.5116 11.9686 53.7241 12.1994 53.8658 12.4909C54.0193 12.7824 54.096 13.1103 54.096 13.4747C54.096 13.8391 54.0193 14.167 53.8658 14.4585C53.7241 14.7378 53.5116 14.9625 53.2282 15.1326Z" fill="#727272"/>
<path fill-rule="evenodd" clip-rule="evenodd" d="M62.349 18.339C61.4633 18.339 60.6602 18.1387 59.9403 17.7378C59.2317 17.3249 58.671 16.7662 58.2577 16.0617C57.8444 15.3573 57.6378 14.5678 57.6378 13.6933C57.6378 12.8188 57.8444 12.0355 58.2577 11.3432C58.671 10.6508 59.2317 10.1043 59.9403 9.7035C60.6485 9.29051 61.4515 9.08403 62.349 9.08403C63.2459 9.08403 64.0489 9.28447 64.757 9.68524C65.4657 10.0861 66.0264 10.6387 66.4397 11.3432C66.8529 12.0355 67.0596 12.8188 67.0596 13.6933C67.0596 14.5678 66.8529 15.3573 66.4397 16.0617C66.0264 16.7662 65.4657 17.3249 64.757 17.7378C64.0489 18.1387 63.2459 18.339 62.349 18.339ZM62.349 15.8067C62.7382 15.8067 63.0806 15.7217 63.376 15.5516C63.6708 15.3695 63.8953 15.1205 64.0489 14.8047C64.2142 14.4768 64.2969 14.1063 64.2969 13.6933C64.2969 13.2804 64.2142 12.9221 64.0489 12.6185C63.8836 12.3027 63.6535 12.0598 63.3581 11.8897C63.075 11.7075 62.7382 11.6164 62.349 11.6164C61.9709 11.6164 61.6341 11.7075 61.3393 11.8897C61.0439 12.0598 60.8138 12.3027 60.6485 12.6185C60.4832 12.9343 60.4005 13.2986 60.4005 13.7115C60.4005 14.1124 60.4832 14.4768 60.6485 14.8047C60.8138 15.1205 61.0439 15.3695 61.3393 15.5516C61.6341 15.7217 61.9709 15.8067 62.349 15.8067Z" fill="#727272"/>
<path fill-rule="evenodd" clip-rule="evenodd" d="M77.277 18.3208C76.699 18.3208 76.1674 18.2055 75.6832 17.9747C75.4285 17.8532 75.1985 17.7082 74.9929 17.5397V21.8734H72.3185V9.28446H75.0281V9.89555C75.2247 9.73015 75.4431 9.58716 75.6832 9.46663C76.1674 9.22368 76.699 9.10224 77.277 9.10224C78.0918 9.10224 78.8122 9.30267 79.4377 9.7035C80.0755 10.1043 80.5714 10.6508 80.9254 11.3431C81.2918 12.0355 81.4744 12.8249 81.4744 13.7115C81.4744 14.5982 81.2918 15.3877 80.9254 16.08C80.5714 16.7723 80.0755 17.3188 79.4377 17.7196C78.8122 18.1204 78.0918 18.3208 77.277 18.3208ZM76.7817 15.8067C77.1709 15.8067 77.5077 15.7156 77.7908 15.5334C78.0862 15.3512 78.3163 15.1022 78.4816 14.7864C78.6469 14.4707 78.7296 14.1123 78.7296 13.7115C78.7296 13.2986 78.6469 12.9342 78.4816 12.6184C78.3163 12.3027 78.0862 12.0598 77.7908 11.8897C77.5077 11.7075 77.1771 11.6164 76.799 11.6164C76.4215 11.6164 76.0847 11.7075 75.7899 11.8897C75.5062 12.0598 75.2822 12.3027 75.1169 12.6184C74.9516 12.9342 74.869 13.2986 74.869 13.7115C74.869 14.1123 74.9455 14.4707 75.099 14.7864C75.2644 15.1022 75.4944 15.3512 75.7899 15.5334C76.0847 15.7156 76.4153 15.8067 76.7817 15.8067Z" fill="#727272"/>
<path d="M84.1261 18.1569C84.622 18.2905 85.1235 18.3572 85.6311 18.3572C86.7056 18.3572 87.5556 18.1022 88.1816 17.5921C88.8188 17.082 89.1377 16.3958 89.1377 15.5334C89.1377 14.9747 89.0377 14.5253 88.8367 14.1853C88.6362 13.833 88.3765 13.5537 88.0576 13.3472C87.7387 13.1407 87.402 12.9767 87.0479 12.8553C86.6939 12.7338 86.3571 12.6306 86.0388 12.5456C85.7199 12.4605 85.4602 12.3634 85.2592 12.2541C85.0587 12.1447 84.9582 11.999 84.9582 11.8168C84.9582 11.6468 85.0353 11.5192 85.1883 11.4342C85.3418 11.3371 85.5719 11.2885 85.8791 11.2885C86.198 11.2885 86.5224 11.3553 86.853 11.4889C87.1954 11.6225 87.5025 11.8533 87.7739 12.1812L89.3147 10.578C88.9255 10.0678 88.4178 9.68523 87.7918 9.43022C87.1781 9.16302 86.5051 9.0294 85.773 9.0294C85.0766 9.0294 84.4684 9.15084 83.9491 9.39374C83.4291 9.63669 83.0276 9.9707 82.7445 10.3958C82.4613 10.8087 82.3195 11.3006 82.3195 11.8715C82.3195 12.4059 82.42 12.8492 82.6205 13.2014C82.821 13.5415 83.0812 13.8087 83.3995 14.003C83.7184 14.1974 84.0552 14.3492 84.4092 14.4585C84.7633 14.5678 85.1 14.671 85.4189 14.7682C85.7372 14.8533 85.9975 14.9565 86.198 15.078C86.4107 15.1873 86.5168 15.3512 86.5168 15.5698C86.5168 15.7399 86.428 15.8734 86.251 15.9706C86.0857 16.0678 85.8439 16.1164 85.525 16.1164C85.0643 16.1164 84.6393 16.0314 84.2501 15.8613C83.8603 15.6792 83.5235 15.4302 83.2404 15.1144L81.6996 16.7176C81.995 17.0455 82.3491 17.3371 82.7623 17.5921C83.1873 17.835 83.6419 18.0232 84.1261 18.1569Z" fill="#727272"/>
<path d="M94.0794 18.339C93.2886 18.339 92.5861 18.1751 91.9723 17.8472C91.3698 17.5071 90.8979 17.0455 90.5555 16.4625C90.2126 15.8674 90.0417 15.1873 90.0417 14.4221V9.28447H92.7514V14.3856C92.7514 14.6893 92.7983 14.9504 92.8932 15.169C92.9993 15.3877 93.1529 15.5577 93.3534 15.6792C93.5544 15.8006 93.7963 15.8613 94.0794 15.8613C94.4809 15.8613 94.7998 15.7338 95.036 15.4787C95.2723 15.2115 95.3901 14.8472 95.3901 14.3856V9.28447H98.0997V14.4039C98.0997 15.1812 97.9289 15.8674 97.586 16.4625C97.2436 17.0455 96.7717 17.5071 96.1692 17.8472C95.5671 18.1751 94.8707 18.339 94.0794 18.339Z" fill="#727272"/>
<path d="M102.156 9.28446H99.4463V18.1386H102.156V12.9646C102.156 12.661 102.215 12.4059 102.333 12.1994C102.463 11.9929 102.635 11.835 102.847 11.7257C103.06 11.6042 103.301 11.5435 103.573 11.5435C103.963 11.5435 104.287 11.6711 104.547 11.9261C104.819 12.169 104.954 12.5152 104.954 12.9646V18.1386H107.664V12.9646C107.664 12.661 107.723 12.4059 107.841 12.1994C107.971 11.9929 108.142 11.835 108.355 11.7257C108.567 11.6042 108.809 11.5435 109.081 11.5435C109.471 11.5435 109.795 11.6711 110.055 11.9261C110.326 12.169 110.462 12.5152 110.462 12.9646V18.1386H113.172V12.6549C113.172 11.914 113.018 11.2824 112.711 10.7602C112.416 10.2257 112.009 9.81885 111.489 9.53954C110.982 9.24798 110.397 9.10224 109.736 9.10224C109.063 9.10224 108.455 9.25407 107.912 9.55775C107.559 9.75118 107.251 10.0008 106.987 10.3067C106.74 9.98677 106.441 9.72498 106.087 9.52127C105.616 9.24195 105.078 9.10224 104.476 9.10224C103.839 9.10224 103.266 9.24195 102.759 9.52127C102.537 9.63749 102.337 9.77669 102.156 9.93886V9.28446Z" fill="#727272"/>
</g>
<defs>
<clipPath id="clip0_2_556">
<rect width="112.809" height="22.9795" fill="white" transform="translate(0.611328 0.981689)"/>
</clipPath>
</defs>
</svg>
