<svg width="33" height="31" viewBox="0 0 33 31" fill="none" xmlns="http://www.w3.org/2000/svg">
<g clip-path="url(#clip0_2002_108)">
<path d="M30.307 19.4898C30.1812 18.9701 29.6642 18.3638 28.6213 18.3638C28.4081 18.3638 28.1751 18.3883 27.9097 18.4385C27.423 18.53 27.0084 18.5745 26.6433 18.5895C29.4848 14.1761 31.3293 8.04566 29.5026 5.91733C27.0957 3.11319 23.8555 2.69442 22.1388 2.69442L21.9773 2.69505C21.3386 2.70445 20.6758 2.77592 20.009 2.90757L17.5456 3.39279C17.2101 3.35455 16.8685 3.32759 16.5123 3.32195H16.4917H16.4807L16.3762 3.32132C15.281 3.32132 14.2821 3.53321 13.3918 3.9313L12.5317 3.62223C11.3492 3.19719 9.56995 2.69128 7.80995 2.69128C7.71095 2.69128 7.61264 2.69316 7.51364 2.6963C5.77976 2.75335 4.29064 3.35329 3.20645 4.43094C1.85345 5.77627 1.23745 7.74412 1.37701 10.2806C1.38389 10.4116 3.06689 23.3828 7.83745 23.3828H7.85464L7.89864 23.3822C8.51808 23.3684 9.10864 23.1415 9.6607 22.707C10.0821 22.9954 10.6273 23.1659 11.1354 23.2336C11.4709 23.3057 12.0745 23.4079 12.7978 23.4079C13.6805 23.4079 14.4766 23.243 15.1628 22.9453C15.1621 23.4969 15.1586 24.1953 15.1518 25.088L15.1511 25.135L15.1545 25.182C15.2212 26.0716 15.3896 26.8734 15.6433 27.5022C16.3659 29.2945 17.6137 30.2819 19.1571 30.2819C19.2211 30.2819 19.2864 30.28 19.3524 30.2763C20.6215 30.2048 21.9078 29.5547 22.7926 28.5385C23.7503 27.4383 23.9717 26.2772 24.057 25.3877L24.0625 25.3331V25.278V22.7208L24.1333 22.7271L24.433 22.7509L24.4619 22.7534L24.4908 22.7547C24.576 22.7584 24.664 22.7597 24.7527 22.7597C25.7888 22.7597 27.0641 22.5146 27.9262 22.1491C28.7505 21.8005 30.6343 20.8426 30.307 19.4898Z" fill="white"/>
<path d="M22.3939 21.6785C22.3939 21.55 22.4022 21.4428 22.4063 21.3243C22.3994 21.1669 22.3939 21.0516 22.3939 21.0516C22.3939 21.0516 22.4022 21.0459 22.4159 21.0378C22.5184 19.3621 23.025 18.7164 23.5675 18.3484C23.4919 18.2525 23.4045 18.149 23.3227 18.0506C23.0938 17.7766 22.8085 17.4369 22.5032 17.0012L22.4469 16.9021C22.4008 16.7993 22.2894 16.6219 22.1478 16.3887C21.3345 15.0471 19.6419 12.2561 20.8003 10.4933C21.3077 9.72093 22.2592 9.27583 23.6335 9.16612C23.0718 7.70983 20.9674 4.19729 16.1961 4.1252C16.1947 4.1252 16.1934 4.1252 16.192 4.1252C12.0388 4.06376 10.6741 7.50546 10.23 9.5617C10.8419 9.32536 11.5404 9.1818 12.1797 9.1818C12.1894 9.1818 12.1997 9.1818 12.2093 9.1818C13.7837 9.19245 14.8665 9.95853 15.1814 11.2844C15.4117 12.2574 15.5224 13.1087 15.5196 13.888C15.5127 15.5925 15.136 16.489 14.8032 17.2801L14.6974 17.5359C14.6121 17.7453 14.522 17.9403 14.4368 18.1233C14.3502 18.3101 14.2739 18.4763 14.2182 18.6261C14.5509 18.695 14.8122 18.7922 14.9916 18.8643L15.0954 18.9057C15.1277 18.9182 15.16 18.9326 15.1896 18.9489C15.7726 19.2724 16.1356 19.7696 16.2133 20.3488C16.2552 20.661 16.2484 22.7893 16.2339 24.6462C16.2937 25.4518 16.4436 26.1282 16.6416 26.6185C16.9228 27.3168 17.6254 28.6503 18.975 28.5738C19.9169 28.5205 20.8223 27.9977 21.4232 27.3081C22.068 26.5677 22.3059 25.749 22.3953 24.8268V21.6785H22.3939Z" fill="#0277BD"/>
<path d="M10.3908 18.9425C9.28188 17.8874 8.74151 16.4681 8.94432 15.146C9.14026 13.8702 9.02957 12.6214 8.96976 11.95C8.94982 11.7262 8.93676 11.5595 8.93745 11.4673C8.93745 11.4623 8.93882 11.4579 8.93951 11.4529C8.93951 11.4504 8.93813 11.4485 8.93813 11.446C9.02132 9.55212 9.82226 6.56431 12.0271 4.78829C10.9532 4.40275 9.20419 3.89433 7.56244 3.94887C4.98982 4.03413 2.4997 5.65655 2.74995 10.2179C2.84413 11.9293 4.96507 22.1936 7.86494 22.129C8.27951 22.1196 8.70988 21.877 9.15195 21.3918C9.85113 20.6251 10.5304 19.9299 11.0137 19.4459C10.7971 19.2961 10.5881 19.1306 10.3908 18.9425ZM25.4533 10.0493C25.4636 10.1458 25.4546 10.2286 25.4381 10.305C25.4594 10.8818 25.3914 11.4416 25.3219 11.9833C25.2711 12.382 25.2188 12.7938 25.2044 13.207C25.1899 13.6113 25.2525 14.0107 25.3185 14.4332C25.4732 15.4224 25.6341 16.539 24.7926 17.8417C24.9473 18.0272 25.0834 18.1996 25.192 18.3664C28.3614 13.6803 29.6388 8.10962 28.4198 6.68969C26.5753 4.54066 24.0219 3.91878 21.9993 3.94887C21.3661 3.95827 20.7906 4.03601 20.2991 4.13318C23.7888 5.67536 25.3433 8.98039 25.4533 10.0493ZM28.1874 19.6659C26.3553 20.0107 25.4739 19.8271 25.0463 19.587C24.9775 19.6321 24.9088 19.6703 24.8448 19.7061C24.5891 19.8471 24.1841 20.0716 24.0851 21.4501C24.1422 21.4601 24.1924 21.4658 24.2543 21.4777L24.5533 21.5021C25.4608 21.5398 26.6495 21.3078 27.3466 21.0125C28.8488 20.3769 29.6676 19.3876 28.1874 19.6659ZM15.1408 20.9498C15.1153 20.763 15.0046 20.6119 14.8025 20.4909L14.7283 20.4615C14.4801 20.3618 14.1989 20.2483 13.7499 20.2483H13.7472C13.6599 20.2546 13.5733 20.2602 13.4859 20.2602C13.4502 20.2602 13.4151 20.2559 13.3794 20.2546C13.0535 20.4834 12.5901 20.6602 11.4434 20.8752C9.39463 21.3511 10.6039 21.9128 11.3898 21.9999C12.1501 22.1736 13.9576 22.3848 15.1579 21.4927C15.1545 21.2119 15.149 21.0188 15.1408 20.9498Z" fill="#0277BD"/>
<path d="M14.2182 12.4126C14.0174 12.602 13.7005 12.7675 13.3505 12.7161C12.7813 12.6321 12.3447 12.0058 12.3763 11.7707C12.4066 11.5362 12.8927 11.414 13.4612 11.498C13.6585 11.5275 13.838 11.5782 13.9892 11.6409C13.7692 11.2096 13.3712 10.9607 12.7641 10.8999C11.6882 10.7908 10.5462 11.3037 10.3166 11.5876C10.3214 11.6566 10.3303 11.745 10.3393 11.8491C10.4032 12.5681 10.5215 13.9078 10.3049 15.3202C10.1619 16.2512 10.5751 17.3069 11.3822 18.0755C11.9027 18.5707 12.5104 18.8842 13.1099 18.9769C13.1862 18.6773 13.3223 18.3851 13.4626 18.0836C13.5403 17.9175 13.6228 17.7407 13.7005 17.5495L13.8118 17.2818C14.1164 16.5577 14.4306 15.8086 14.4368 14.3335C14.4395 13.7661 14.3632 13.1185 14.2182 12.4126ZM23.9573 14.6106C23.8858 14.1535 23.8122 13.6802 23.8301 13.1668C23.8459 12.7016 23.9023 12.2628 23.9566 11.8384C23.9992 11.5043 24.0322 11.1833 24.0515 10.8667C23.1653 10.9338 22.5768 11.167 22.2977 11.5613C22.4132 11.5256 22.5438 11.4974 22.6882 11.4804C23.3014 11.4077 23.749 11.5688 23.8005 11.8798C23.8383 12.1073 23.6266 12.3217 23.5338 12.4039C23.3433 12.5725 23.1034 12.681 22.8593 12.7098C22.8153 12.7148 22.7707 12.7173 22.7273 12.7173C22.4847 12.7173 22.253 12.6415 22.0749 12.5292C22.1519 13.7661 23.1522 15.4205 23.6445 16.2324C23.7497 16.406 23.8308 16.5446 23.8982 16.6637C24.1683 15.9622 24.0687 15.3227 23.9573 14.6106Z" fill="#0277BD"/>
</g>
<defs>
<clipPath id="clip0_2002_108">
<rect width="33" height="30.0913" fill="white" transform="translate(0 0.814331)"/>
</clipPath>
</defs>
</svg>
