<svg width="896" height="330" viewBox="0 0 896 330" fill="none" xmlns="http://www.w3.org/2000/svg">
<path d="M881 170.532C881 188.89 868.83 206.475 846.59 222.551C824.362 238.619 792.165 253.11 752.334 265.289C672.679 289.643 562.605 304.714 441 304.714C319.395 304.714 209.321 289.643 129.666 265.289C89.8348 253.11 57.6378 238.619 35.4096 222.551C13.1699 206.475 1 188.89 1 170.532C1 152.174 13.1699 134.589 35.4096 118.513C57.6378 102.445 89.8348 87.9537 129.666 75.7754C209.321 51.4208 319.395 36.3497 441 36.3497C562.605 36.3497 672.679 51.4208 752.334 75.7754C792.165 87.9537 824.362 102.445 846.59 118.513C868.83 134.589 881 152.174 881 170.532Z" stroke="url(#paint0_linear_2002_21)"/>
<path d="M827 170.532C827 188.921 816.431 206.509 797.16 222.572C777.893 238.633 749.982 253.12 715.449 265.295C646.386 289.645 550.945 304.714 445.5 304.714C340.055 304.714 244.614 289.645 175.551 265.295C141.018 253.12 113.107 238.633 93.8396 222.572C74.569 206.509 64 188.921 64 170.532C64 152.143 74.569 134.555 93.8396 118.492C113.107 102.431 141.018 87.9443 175.551 75.7688C244.614 51.4195 340.055 36.3497 445.5 36.3497C550.945 36.3497 646.386 51.4195 715.449 75.7688C749.982 87.9443 777.893 102.431 797.16 118.492C816.431 134.555 827 152.143 827 170.532Z" stroke="url(#paint1_linear_2002_21)"/>
<path d="M803 170.532C803 188.94 793.376 206.532 775.854 222.588C758.331 238.644 732.948 253.127 701.539 265.301C638.725 289.646 551.914 304.714 456 304.714C360.086 304.714 273.275 289.646 210.461 265.301C179.052 253.127 153.669 238.644 136.146 222.588C118.624 206.532 109 188.94 109 170.532C109 152.124 118.624 134.533 136.146 118.476C153.669 102.42 179.052 87.9367 210.461 75.7635C273.275 51.4183 360.086 36.3497 456 36.3497C551.914 36.3497 638.725 51.4183 701.539 75.7635C732.948 87.9367 758.331 102.42 775.854 118.476C793.376 134.533 803 152.124 803 170.532Z" stroke="url(#paint2_linear_2002_21)"/>
<path d="M853.593 124.719C853.593 123.164 851.926 121.691 849.37 120.778C849.96 117.736 849.698 115.315 848.543 114.54C848.263 114.357 847.946 114.265 847.625 114.273V115.339C847.814 115.339 847.965 115.383 848.093 115.464C848.649 115.838 848.891 117.257 848.703 119.084C848.658 119.534 848.584 120.007 848.494 120.49C847.638 120.249 846.769 120.075 845.893 119.969C845.372 119.129 844.802 118.33 844.19 117.578C845.525 116.129 846.778 115.335 847.631 115.335V114.268C846.504 114.268 845.029 115.206 843.538 116.832C842.048 115.217 840.573 114.288 839.447 114.288V115.354C840.295 115.354 841.552 116.144 842.888 117.583C842.314 118.287 841.741 119.084 841.196 119.969C840.318 120.074 839.448 120.25 838.591 120.495C838.501 120.037 838.429 119.575 838.378 119.109C838.185 117.281 838.423 115.861 838.976 115.484C839.098 115.398 839.258 115.358 839.447 115.358V114.293C839.103 114.293 838.791 114.379 838.522 114.56C837.37 115.335 837.113 117.75 837.706 120.783C835.159 121.702 833.5 123.169 833.5 124.719C833.5 126.273 835.167 127.746 837.723 128.659C837.133 131.701 837.395 134.122 838.55 134.896C838.816 135.078 839.128 135.164 839.471 135.164C840.598 135.164 842.072 134.226 843.563 132.601C845.054 134.217 846.528 135.144 847.655 135.144C847.978 135.152 848.297 135.06 848.58 134.877C849.731 134.102 849.989 131.687 849.395 128.655C851.935 127.742 853.593 126.268 853.593 124.719ZM848.26 121.529C848.101 122.168 847.917 122.798 847.708 123.417C847.365 122.64 846.989 121.883 846.581 121.15C847.163 121.251 847.724 121.375 848.261 121.529H848.26ZM846.385 126.622C846.078 127.247 845.749 127.857 845.398 128.449C844.169 128.576 842.933 128.578 841.704 128.454C840.999 127.278 840.382 126.033 839.861 124.733C840.382 123.43 840.995 122.181 841.696 120.999C842.925 120.872 844.16 120.87 845.389 120.993C845.729 121.562 846.062 122.17 846.381 122.811C846.692 123.437 846.975 124.072 847.233 124.714C846.972 125.363 846.689 126 846.385 126.622V126.622ZM847.708 126C847.929 126.641 848.118 127.282 848.273 127.904C847.737 128.057 847.171 128.186 846.586 128.286C846.992 127.546 847.366 126.784 847.708 126V126ZM843.555 131.104C843.174 130.644 842.793 130.133 842.416 129.573C842.785 129.592 843.161 129.607 843.542 129.607C843.928 129.607 844.308 129.597 844.681 129.573C844.313 130.133 843.932 130.644 843.555 131.104ZM840.507 128.286C839.943 128.191 839.383 128.065 838.828 127.909C838.98 127.292 839.168 126.655 839.381 126.02C839.549 126.401 839.726 126.784 839.918 127.168C840.111 127.55 840.307 127.923 840.507 128.286ZM843.534 118.334C843.915 118.793 844.296 119.304 844.673 119.865C844.304 119.845 843.928 119.83 843.547 119.83C843.161 119.83 842.781 119.84 842.408 119.865C842.776 119.304 843.157 118.793 843.534 118.334ZM840.503 121.151C840.097 121.889 839.723 122.65 839.381 123.432C839.166 122.809 838.978 122.173 838.816 121.529C839.352 121.38 839.918 121.251 840.503 121.151ZM836.797 127.138C835.347 126.417 834.409 125.47 834.409 124.719C834.409 123.968 835.347 123.016 836.797 122.299C837.149 122.122 837.534 121.964 837.931 121.816C838.165 122.753 838.472 123.728 838.852 124.728C838.493 125.669 838.19 126.637 837.944 127.626C837.555 127.486 837.172 127.323 836.797 127.138V127.138ZM839 133.972C838.444 133.601 838.202 132.179 838.39 130.353C838.435 129.903 838.509 129.429 838.599 128.946C839.402 129.176 840.278 129.353 841.2 129.468C841.722 130.309 842.291 131.108 842.904 131.86C841.568 133.308 840.315 134.102 839.463 134.102C839.302 134.104 839.143 134.06 839 133.973V133.972ZM848.716 130.329C848.908 132.156 848.67 133.576 848.117 133.954C847.995 134.04 847.835 134.078 847.646 134.078C846.798 134.078 845.541 133.289 844.205 131.849C844.816 131.1 845.381 130.303 845.897 129.463C846.775 129.358 847.645 129.183 848.502 128.937C848.597 129.42 848.669 129.884 848.716 130.329V130.329ZM850.292 127.138C849.94 127.315 849.555 127.474 849.158 127.621C848.907 126.627 848.6 125.654 848.237 124.709C848.613 123.715 848.916 122.744 849.145 121.811C849.535 121.952 849.919 122.115 850.296 122.299C851.746 123.02 852.684 123.968 852.684 124.719C852.68 125.47 851.742 126.422 850.292 127.138V127.138Z" fill="url(#paint3_linear_2002_21)"/>
<path d="M843.542 126.904C844.039 126.904 844.515 126.674 844.866 126.264C845.217 125.854 845.414 125.298 845.414 124.718C845.414 124.138 845.217 123.582 844.866 123.172C844.515 122.762 844.039 122.532 843.542 122.532C843.046 122.532 842.57 122.762 842.219 123.172C841.868 123.582 841.67 124.138 841.67 124.718C841.67 125.298 841.868 125.854 842.219 126.264C842.57 126.674 843.046 126.904 843.542 126.904V126.904Z" fill="url(#paint4_linear_2002_21)"/>
<path d="M783.107 83.906H772.893C772.124 83.906 771.5 84.6346 771.5 85.5325V97.4604C771.5 98.3584 772.124 99.0869 772.893 99.0869H783.107C783.876 99.0869 784.5 98.3584 784.5 97.4604V85.5325C784.5 84.6346 783.876 83.906 783.107 83.906ZM778.575 95.7458C778.575 97.2232 777.832 97.8975 776.749 97.8975C775.771 97.8975 775.206 97.3079 774.915 96.5929L775.911 95.8915C776.102 96.2879 776.276 96.6234 776.697 96.6234C777.098 96.6234 777.353 96.4404 777.353 95.7254V90.8763H778.575V95.7458V95.7458ZM781.465 97.8975C780.33 97.8975 779.596 97.2672 779.239 96.4404L780.234 95.7695C780.496 96.2676 780.838 96.637 781.439 96.637C781.944 96.637 782.269 96.3421 782.269 95.9321C782.269 95.4442 781.938 95.2713 781.378 94.9833L781.073 94.8308C780.191 94.3937 779.608 93.8414 779.608 92.6791C779.608 91.6083 780.307 90.795 781.395 90.795C782.173 90.795 782.73 91.1102 783.13 91.937L782.179 92.6486C781.97 92.2114 781.743 92.0386 781.392 92.0386C781.035 92.0386 780.809 92.3029 780.809 92.6486C780.809 93.0755 781.035 93.2484 781.56 93.5161L781.865 93.6685C782.904 94.187 783.487 94.719 783.487 95.9118C783.487 97.1927 782.623 97.8975 781.465 97.8975V97.8975Z" fill="url(#paint5_linear_2002_21)"/>
<path d="M887.496 189.006C887.256 189.006 887.013 188.926 886.802 188.777L884.592 187.17C884.263 186.941 884.424 186.861 884.531 186.817C884.972 186.628 885.061 186.588 885.53 186.258C885.581 186.223 885.645 186.236 885.695 186.276L887.393 187.513C887.453 187.557 887.539 187.557 887.597 187.513L894.211 182.82C894.272 182.776 894.311 182.688 894.311 182.6V173.213C894.311 173.121 894.272 173.037 894.207 172.988L887.597 168.3C887.536 168.256 887.453 168.256 887.393 168.3L880.786 172.993C880.721 173.037 880.682 173.125 880.682 173.217V182.6C880.682 182.688 880.721 182.776 880.786 182.815L882.598 184.101C883.582 184.704 884.184 183.995 884.184 183.278V174.014C884.184 173.882 884.27 173.781 884.377 173.781H885.215C885.319 173.781 885.409 173.882 885.409 174.014V183.282C885.409 184.893 884.692 185.818 883.45 185.818C883.067 185.818 882.766 185.818 881.928 185.307L880.195 184.079C879.765 183.775 879.5 183.207 879.5 182.595V173.213C879.5 172.605 879.765 172.033 880.195 171.729L886.802 167.036C887.221 166.745 887.776 166.745 888.191 167.036L894.805 171.734C895.235 172.037 895.5 172.605 895.5 173.217V182.6C895.5 183.207 895.235 183.775 894.805 184.083L888.191 188.777C887.98 188.926 887.74 189.006 887.496 189.006ZM892.836 179.755C892.836 177.999 891.869 177.532 889.838 177.202C887.783 176.867 887.575 176.696 887.575 176.106C887.575 175.617 887.751 174.965 889.273 174.965C890.63 174.965 891.131 175.326 891.339 176.453C891.357 176.559 891.436 176.638 891.525 176.638H892.385C892.438 176.638 892.488 176.612 892.524 176.563C892.56 176.515 892.578 176.449 892.574 176.383C892.442 174.441 891.393 173.539 889.273 173.539C887.385 173.539 886.261 174.516 886.261 176.158C886.261 177.937 887.382 178.43 889.19 178.65C891.357 178.91 891.525 179.302 891.525 179.826C891.525 180.733 890.931 181.12 889.538 181.12C887.786 181.12 887.403 180.579 887.274 179.509C887.26 179.394 887.181 179.311 887.085 179.311H886.229C886.121 179.311 886.039 179.416 886.039 179.544C886.039 180.913 886.644 182.547 889.541 182.547C891.632 182.542 892.836 181.525 892.836 179.755V179.755Z" fill="url(#paint6_linear_2002_21)"/>
<path fill-rule="evenodd" clip-rule="evenodd" d="M769.535 254.4C767.853 254.4 766.5 256.048 766.5 258.067C766.5 259.294 767.001 260.385 767.77 261.05C767.373 261.397 767.052 261.848 766.831 262.366C766.611 262.884 766.497 263.455 766.5 264.034C766.5 265.262 767.001 266.351 767.77 267.017C767.373 267.364 767.052 267.814 766.831 268.332C766.611 268.85 766.497 269.422 766.5 270C766.5 272.019 767.853 273.668 769.535 273.668C771.217 273.668 772.571 272.019 772.571 270V266.9C773.102 267.417 773.772 267.701 774.465 267.702C776.147 267.701 777.5 266.053 777.5 264.034C777.503 263.455 777.389 262.884 777.169 262.366C776.948 261.848 776.627 261.397 776.23 261.05C776.627 260.703 776.948 260.253 777.169 259.735C777.389 259.217 777.503 258.645 777.5 258.067C777.5 256.048 776.147 254.4 774.465 254.4H769.535V254.4ZM767.641 258.067C767.641 256.79 768.494 255.767 769.535 255.767H771.429V260.367H769.535C768.494 260.367 767.641 259.343 767.641 258.067V258.067ZM774.465 260.366H772.571V255.766H774.465C775.506 255.766 776.359 256.79 776.359 258.067C776.359 259.343 775.506 260.366 774.465 260.366ZM767.641 264.034C767.641 262.757 768.495 261.733 769.536 261.733H771.43V266.334H769.535C768.494 266.334 767.641 265.31 767.641 264.034H767.641ZM772.571 264.034C772.571 262.757 773.424 261.733 774.465 261.733C775.507 261.733 776.36 262.756 776.36 264.034C776.36 265.31 775.507 266.334 774.465 266.334C773.424 266.334 772.571 265.311 772.571 264.034H772.571ZM767.641 270C767.641 268.724 768.495 267.701 769.536 267.701H771.43V270C771.43 271.277 770.578 272.3 769.536 272.3C768.495 272.3 767.641 271.277 767.641 270Z" fill="url(#paint7_linear_2002_21)"/>
<path d="M837.834 186.669H828.756C827.51 186.669 826.5 187.849 826.5 189.304V199.508C826.5 200.963 827.51 202.143 828.756 202.143H837.834C839.08 202.143 840.091 200.963 840.091 199.508V189.304C840.091 187.849 839.08 186.669 837.834 186.669Z" fill="url(#paint8_linear_2002_21)"/>
<path d="M833.644 190.739L831.949 194.008L833.763 197.479C833.775 197.503 833.778 197.531 833.772 197.558C833.769 197.57 833.763 197.573 833.754 197.573L833.744 197.573L833.731 197.573C833.724 197.573 833.717 197.573 833.708 197.575H832.4L832.375 197.574C832.304 197.572 832.253 197.56 832.222 197.5C832.101 197.225 831.98 196.949 831.858 196.675C831.748 196.43 831.636 196.187 831.521 195.945L831.47 195.839C831.332 195.553 831.197 195.266 831.064 194.977H831.055C830.933 195.263 830.807 195.547 830.677 195.828C830.546 196.112 830.417 196.395 830.289 196.675C830.162 196.955 830.031 197.234 829.897 197.511C829.876 197.567 829.84 197.579 829.79 197.581L829.77 197.581H828.521L828.515 197.581L828.497 197.583C828.488 197.584 828.482 197.581 828.48 197.564C828.476 197.538 828.481 197.511 828.493 197.489L830.253 194.114L828.539 190.729C828.521 190.701 828.518 190.677 828.53 190.66C828.537 190.651 828.545 190.643 828.554 190.639C828.564 190.634 828.574 190.632 828.585 190.633H829.87C829.898 190.631 829.926 190.637 829.952 190.649C829.974 190.663 829.993 190.683 830.007 190.708C830.116 190.991 830.238 191.275 830.372 191.559C830.504 191.841 830.639 192.122 830.777 192.4C830.913 192.675 831.039 192.955 831.156 193.241H831.165C831.284 192.955 831.407 192.671 831.534 192.39C831.658 192.113 831.786 191.834 831.917 191.554C832.046 191.277 832.172 190.999 832.295 190.718C832.302 190.692 832.315 190.668 832.332 190.649C832.354 190.636 832.379 190.63 832.405 190.633H833.599C833.61 190.63 833.621 190.631 833.632 190.636C833.642 190.641 833.651 190.65 833.657 190.661C833.662 190.673 833.665 190.686 833.663 190.699C833.662 190.712 833.657 190.725 833.649 190.734L833.645 190.739L833.644 190.739ZM836.324 197.712L836.261 197.713C835.841 197.72 835.426 197.618 835.044 197.415C834.688 197.223 834.391 196.909 834.191 196.515C833.99 196.125 833.887 195.638 833.882 195.056L833.881 195.009C833.878 194.52 833.985 194.039 834.191 193.614C834.398 193.193 834.699 192.847 835.063 192.612L835.094 192.592C835.489 192.336 835.966 192.209 836.525 192.209L836.55 192.209L836.578 192.21L836.609 192.212L836.644 192.214L836.702 192.219L836.769 192.225L836.817 192.23V190.133C836.817 190.083 836.835 190.058 836.872 190.058H838.021C838.028 190.057 838.036 190.058 838.043 190.06C838.05 190.063 838.056 190.068 838.062 190.074C838.067 190.08 838.071 190.088 838.073 190.096C838.076 190.104 838.076 190.113 838.075 190.122V196.414C838.075 196.52 838.079 196.633 838.086 196.755L838.103 197.031L838.112 197.191C838.113 197.213 838.108 197.235 838.098 197.254C838.089 197.273 838.074 197.288 838.057 197.298C837.761 197.442 837.452 197.549 837.136 197.617C836.868 197.675 836.596 197.707 836.324 197.712V197.712ZM836.817 196.393V193.486C836.768 193.471 836.718 193.46 836.667 193.454C836.605 193.447 836.542 193.443 836.48 193.444C836.259 193.441 836.04 193.499 835.842 193.614C835.648 193.726 835.484 193.895 835.363 194.104C835.243 194.309 835.18 194.578 835.176 194.909L835.176 194.945C835.172 195.177 835.204 195.408 835.272 195.626C835.327 195.802 835.414 195.962 835.527 196.095C835.635 196.217 835.766 196.308 835.91 196.361C836.062 196.418 836.22 196.447 836.379 196.446C836.465 196.446 836.544 196.442 836.617 196.435C836.675 196.43 836.732 196.419 836.789 196.402L836.817 196.393V196.393Z" fill="black"/>
<path d="M724.124 97.3775C725.193 96.6608 726.259 95.9382 727.331 95.2289C728.349 94.5554 729.546 95.1765 729.777 96.487C729.91 97.245 729.621 98.064 729.035 98.4629C727.113 99.7705 725.189 101.073 723.255 102.355C722.656 102.752 722.04 102.679 721.494 102.193C720.94 101.699 720.765 101.018 720.895 100.225C721.044 99.6215 721.383 99.218 721.846 98.9162C722.612 98.4171 723.365 97.8918 724.124 97.3775" fill="url(#paint9_linear_2002_21)"/>
<path d="M724.909 96.8569C723.843 96.1346 722.774 95.4179 721.712 94.6883C720.703 93.9956 720.565 92.474 721.422 91.5853C721.917 91.0713 722.669 90.9549 723.258 91.3482C725.189 92.6377 727.117 93.9326 729.035 95.2471C729.629 95.6539 729.883 96.3141 729.795 97.1089C729.706 97.9161 729.288 98.4333 728.635 98.6984C728.113 98.8502 727.644 98.7084 727.189 98.391C726.436 97.8661 725.669 97.3669 724.909 96.8569" fill="url(#paint10_linear_2002_21)"/>
<path d="M715.193 96.3459C714.509 96.7998 713.825 97.2527 713.141 97.708C712.742 97.9742 712.346 98.2496 711.944 98.5114C711.135 99.0391 710.173 98.7298 709.714 97.8004C709.276 96.9135 709.528 95.7637 710.307 95.2322C712.214 93.933 714.125 92.6431 716.043 91.3677C716.631 90.9766 717.241 91.0258 717.785 91.4934C718.36 91.987 718.547 92.6815 718.419 93.4956C718.339 93.6927 718.291 93.9237 718.171 94.0789C717.976 94.3314 717.755 94.5731 717.508 94.7506C716.746 95.2998 715.966 95.8166 715.193 96.3459" fill="url(#paint11_linear_2002_21)"/>
<path d="M714.409 96.8544C715.087 97.3192 715.765 97.7849 716.445 98.2484C716.842 98.5195 717.244 98.7816 717.639 99.0569C718.435 99.6119 718.687 100.739 718.227 101.668C717.788 102.554 716.81 102.875 716.026 102.352C714.109 101.074 712.197 99.7862 710.292 98.4841C709.708 98.0848 709.439 97.4429 709.514 96.659C709.593 95.8315 710.014 95.2942 710.682 95.0174C710.868 94.9999 711.063 94.9327 711.238 94.9762C711.523 95.047 711.813 95.1499 712.068 95.3104C712.856 95.807 713.63 96.3372 714.409 96.8544" fill="url(#paint12_linear_2002_21)"/>
<path fill-rule="evenodd" clip-rule="evenodd" d="M127.5 156.308C123.634 156.308 120.5 160.229 120.5 165.066C120.5 169.903 123.634 173.824 127.5 173.824C131.366 173.824 134.5 169.903 134.5 165.066C134.5 160.229 131.366 156.308 127.5 156.308ZM127.582 170.188C125.325 170.188 123.498 167.896 123.498 165.066C123.498 162.236 125.325 159.944 127.582 159.944C128.684 159.944 129.606 160.453 130.313 161.279L129.161 162.722V162.719C128.733 162.207 128.189 161.944 127.582 161.944C126.234 161.944 125.139 163.372 125.139 165.063C125.139 166.753 126.234 168.185 127.582 168.185C128.804 168.185 129.636 167.307 129.808 166.103H127.582V164.105H131.423C131.474 164.448 131.502 164.806 131.502 165.181C131.502 168.108 129.94 170.188 127.582 170.188V170.188Z" fill="url(#paint13_linear_2002_21)"/>
<path d="M31.7117 225.082H33.601V226.02H32.5017V226.959H33.601V227.898H31.7117V225.082ZM33.9784 225.082H35.8685V225.898H34.7692V226.061H35.8685V227.939H33.9784V227.082H35.0777V226.918H33.9784V225.082ZM36.2466 225.082H38.1352V225.898H37.0359V226.061H38.1352V227.939H36.2466V227.082H37.3459V226.918H36.2466V225.082Z" fill="url(#paint14_linear_2002_21)"/>
<path fill-rule="evenodd" clip-rule="evenodd" d="M34.9935 245.441L29.9784 243.816L28.5 229.189H41.5L40.0223 243.814L34.9935 245.441ZM31.4228 235.81L31.5608 237.604H36.8886L36.7102 239.93L34.9957 240.471H34.9942L33.2826 239.931L33.1728 238.501H31.6294L31.8446 241.318L34.9935 242.338L38.1474 241.318L38.5317 236.291L38.5692 235.81L38.8466 232.178H31.1462L31.2863 233.973H37.1623L37.0222 235.81H31.4228V235.81Z" fill="url(#paint15_linear_2002_21)"/>
<path d="M188.001 63.5171H199.001V77.0117H188.001V63.5171ZM187.5 77.6425H199.5V62.8864H187.5V77.6425ZM195.36 68.1456C195.36 68.0953 195.375 68.0699 195.42 68.0699H196.205C196.245 68.0699 196.265 68.0888 196.265 68.1456V73.121C196.265 73.1713 196.255 73.1967 196.205 73.1967H195.431C195.381 73.1967 195.366 73.1654 195.366 73.1145V68.1456H195.36H195.36ZM195.305 66.7143C195.305 66.5437 195.359 66.3801 195.455 66.2595C195.55 66.1388 195.68 66.0711 195.815 66.0711C195.95 66.0711 196.08 66.1388 196.176 66.2595C196.271 66.3801 196.325 66.5437 196.325 66.7143C196.33 66.8014 196.32 66.8889 196.295 66.9706C196.271 67.0523 196.233 67.1263 196.183 67.1875C196.134 67.2487 196.074 67.2956 196.009 67.3249C195.944 67.3543 195.874 67.3654 195.805 67.3575C195.738 67.3629 195.67 67.3498 195.607 67.3191C195.544 67.2885 195.486 67.2411 195.439 67.18C195.392 67.119 195.355 67.0458 195.332 66.9654C195.309 66.8851 195.3 66.7994 195.306 66.7143H195.305ZM193.055 70.2206C192.915 69.518 192.584 67.9948 192.46 67.257H192.45C192.345 67.9948 192.081 69.2434 191.871 70.2206H193.055ZM191.665 71.2422L191.27 73.134C191.26 73.1843 191.245 73.1972 191.195 73.1972H190.461C190.411 73.1972 190.401 73.1783 190.411 73.1027L191.831 66.8327C191.865 66.6617 191.882 66.4858 191.881 66.3094C191.881 66.2651 191.896 66.2462 191.921 66.2462H192.971C193.006 66.2462 193.021 66.2586 193.031 66.3094L194.621 73.1135C194.631 73.1637 194.621 73.1956 194.581 73.1956H193.751C193.711 73.1956 193.686 73.1832 193.676 73.1416L193.266 71.2433H191.666L191.665 71.2422Z" fill="url(#paint16_linear_2002_21)"/>
<path fill-rule="evenodd" clip-rule="evenodd" d="M82.5 101.506C82.5 101.174 82.6107 100.856 82.8077 100.621C83.0047 100.387 83.2719 100.255 83.5505 100.255H94.0224C94.1604 100.255 94.2972 100.287 94.4248 100.35C94.5524 100.413 94.6684 100.505 94.7661 100.621C94.8638 100.737 94.9413 100.875 94.9941 101.027C95.0469 101.179 95.0741 101.341 95.074 101.506V113.969C95.0742 114.134 95.0471 114.297 94.9943 114.448C94.9416 114.6 94.8642 114.738 94.7665 114.855C94.6689 114.971 94.553 115.063 94.4254 115.126C94.2978 115.189 94.161 115.221 94.0229 115.221H83.5505C83.4125 115.221 83.2759 115.189 83.1484 115.126C83.0209 115.063 82.905 114.971 82.8075 114.855C82.7099 114.738 82.6326 114.601 82.5798 114.449C82.527 114.297 82.4999 114.134 82.5 113.97V101.506ZM87.477 105.961H89.1797V106.979C89.4254 106.394 90.0541 105.867 90.9989 105.867C92.8101 105.867 93.2393 107.033 93.2393 109.171V113.131H91.4064V109.658C91.4064 108.44 91.1606 107.753 90.5365 107.753C89.6706 107.753 89.3105 108.494 89.3105 109.658V113.131H87.477V105.961ZM84.3335 113.038H86.167V105.867H84.3335V113.037V113.038ZM86.4294 103.529C86.4328 103.716 86.4049 103.901 86.3472 104.075C86.2895 104.249 86.2032 104.407 86.0934 104.541C85.9836 104.675 85.8525 104.781 85.7078 104.853C85.563 104.926 85.4076 104.963 85.2506 104.963C85.0935 104.963 84.9381 104.926 84.7934 104.853C84.6486 104.781 84.5175 104.675 84.4077 104.541C84.2979 104.407 84.2116 104.249 84.1539 104.075C84.0962 103.901 84.0683 103.716 84.0718 103.529C84.0785 103.162 84.2057 102.813 84.426 102.556C84.6464 102.3 84.9423 102.156 85.2506 102.156C85.5588 102.156 85.8548 102.3 86.0751 102.556C86.2954 102.813 86.4226 103.162 86.4294 103.529V103.529Z" fill="url(#paint17_linear_2002_21)"/>
<path d="M141.254 234.548L142.732 236.948L150.214 234.548M133.479 253.233L137.527 248.654L135.091 245.628M140.64 234.548L138.477 236.803L142.116 236.96M132.231 234.55L133.007 236.392L137.29 236.7M134.523 244.103L137.687 237.276L128.5 236.699M134.891 244.534L137.88 248.249L141.176 244.511L142.198 237.548L138.182 237.309L134.891 244.534Z" fill="url(#paint18_linear_2002_21)"/>
<defs>
<linearGradient id="paint0_linear_2002_21" x1="441" y1="35.8497" x2="441" y2="305.214" gradientUnits="userSpaceOnUse">
<stop stop-color="#3C534E" stop-opacity="0"/>
<stop offset="0.479167" stop-color="#226071"/>
</linearGradient>
<linearGradient id="paint1_linear_2002_21" x1="445.5" y1="35.8497" x2="445.5" y2="305.214" gradientUnits="userSpaceOnUse">
<stop stop-color="#3C534E" stop-opacity="0"/>
<stop offset="0.479167" stop-color="#226071"/>
</linearGradient>
<linearGradient id="paint2_linear_2002_21" x1="456" y1="35.8497" x2="456" y2="305.214" gradientUnits="userSpaceOnUse">
<stop stop-color="#3C534E" stop-opacity="0"/>
<stop offset="0.479167" stop-color="#226071"/>
</linearGradient>
<linearGradient id="paint3_linear_2002_21" x1="843.547" y1="114.268" x2="843.547" y2="135.164" gradientUnits="userSpaceOnUse">
<stop stop-color="#3B9384" stop-opacity="0.53"/>
<stop offset="1" stop-color="#122D28" stop-opacity="0.53"/>
</linearGradient>
<linearGradient id="paint4_linear_2002_21" x1="843.542" y1="122.532" x2="843.542" y2="126.904" gradientUnits="userSpaceOnUse">
<stop stop-color="#3B9384" stop-opacity="0.53"/>
<stop offset="1" stop-color="#122D28" stop-opacity="0.53"/>
</linearGradient>
<linearGradient id="paint5_linear_2002_21" x1="778" y1="83.906" x2="778" y2="99.0869" gradientUnits="userSpaceOnUse">
<stop stop-color="#3B9384" stop-opacity="0.53"/>
<stop offset="1" stop-color="#122D28" stop-opacity="0.53"/>
</linearGradient>
<linearGradient id="paint6_linear_2002_21" x1="887.5" y1="166.818" x2="887.5" y2="189.006" gradientUnits="userSpaceOnUse">
<stop stop-color="#3B9384" stop-opacity="0.53"/>
<stop offset="1" stop-color="#122D28" stop-opacity="0.53"/>
</linearGradient>
<linearGradient id="paint7_linear_2002_21" x1="772" y1="254.4" x2="772" y2="273.668" gradientUnits="userSpaceOnUse">
<stop stop-color="#3B9384" stop-opacity="0.53"/>
<stop offset="1" stop-color="#122D28" stop-opacity="0.53"/>
</linearGradient>
<linearGradient id="paint8_linear_2002_21" x1="833.295" y1="186.669" x2="833.295" y2="202.143" gradientUnits="userSpaceOnUse">
<stop stop-color="#3B9384" stop-opacity="0.53"/>
<stop offset="1" stop-color="#122D28" stop-opacity="0.53"/>
</linearGradient>
<linearGradient id="paint9_linear_2002_21" x1="725.332" y1="94.9543" x2="725.332" y2="102.611" gradientUnits="userSpaceOnUse">
<stop stop-color="#3B9384" stop-opacity="0.53"/>
<stop offset="1" stop-color="#122D28" stop-opacity="0.53"/>
</linearGradient>
<linearGradient id="paint10_linear_2002_21" x1="725.335" y1="91.1137" x2="725.335" y2="98.7595" gradientUnits="userSpaceOnUse">
<stop stop-color="#3B9384" stop-opacity="0.53"/>
<stop offset="1" stop-color="#122D28" stop-opacity="0.53"/>
</linearGradient>
<linearGradient id="paint11_linear_2002_21" x1="713.979" y1="91.1052" x2="713.979" y2="98.7682" gradientUnits="userSpaceOnUse">
<stop stop-color="#3B9384" stop-opacity="0.53"/>
<stop offset="1" stop-color="#122D28" stop-opacity="0.53"/>
</linearGradient>
<linearGradient id="paint12_linear_2002_21" x1="713.979" y1="94.9618" x2="713.979" y2="102.604" gradientUnits="userSpaceOnUse">
<stop stop-color="#3B9384" stop-opacity="0.53"/>
<stop offset="1" stop-color="#122D28" stop-opacity="0.53"/>
</linearGradient>
<linearGradient id="paint13_linear_2002_21" x1="127.5" y1="156.308" x2="127.5" y2="173.824" gradientUnits="userSpaceOnUse">
<stop stop-color="#3B9384" stop-opacity="0.53"/>
<stop offset="1" stop-color="#122D28" stop-opacity="0.53"/>
</linearGradient>
<linearGradient id="paint14_linear_2002_21" x1="34.9234" y1="225.082" x2="34.9234" y2="227.939" gradientUnits="userSpaceOnUse">
<stop stop-color="#3B9384" stop-opacity="0.53"/>
<stop offset="1" stop-color="#122D28" stop-opacity="0.53"/>
</linearGradient>
<linearGradient id="paint15_linear_2002_21" x1="35" y1="229.189" x2="35" y2="245.441" gradientUnits="userSpaceOnUse">
<stop stop-color="#3B9384" stop-opacity="0.53"/>
<stop offset="1" stop-color="#122D28" stop-opacity="0.53"/>
</linearGradient>
<linearGradient id="paint16_linear_2002_21" x1="193.5" y1="62.8864" x2="193.5" y2="77.6425" gradientUnits="userSpaceOnUse">
<stop stop-color="#3B9384" stop-opacity="0.53"/>
<stop offset="1" stop-color="#122D28" stop-opacity="0.53"/>
</linearGradient>
<linearGradient id="paint17_linear_2002_21" x1="88.787" y1="100.255" x2="88.787" y2="115.221" gradientUnits="userSpaceOnUse">
<stop stop-color="#3B9384" stop-opacity="0.53"/>
<stop offset="1" stop-color="#122D28" stop-opacity="0.53"/>
</linearGradient>
<linearGradient id="paint18_linear_2002_21" x1="139.357" y1="234.548" x2="139.357" y2="253.233" gradientUnits="userSpaceOnUse">
<stop stop-color="#3B9384" stop-opacity="0.53"/>
<stop offset="1" stop-color="#122D28" stop-opacity="0.53"/>
</linearGradient>
</defs>
</svg>
